<svg xmlns="http://www.w3.org/2000/svg" width="18.81" height="20.594" viewBox="0 0 18.81 20.594">
  <defs>
    <style>
      .cls-1 {
        fill: #98a5b1;
        fill-rule: evenodd;
      }
    </style>
  </defs>
  <path id="paperclip" class="cls-1" d="M1421.49,532.605a5.3,5.3,0,0,1-3.76-9.05l10.41-10.385a4.025,4.025,0,0,1,5.68,0,4.007,4.007,0,0,1-.04,5.719l-9.75,9.4a2.466,2.466,0,0,1-3.44-.029,2.445,2.445,0,0,1,.04-3.5l9.14-8.731a0.62,0.62,0,1,1,.86.893l-9.15,8.73a1.218,1.218,0,1,0,1.69,1.754l9.75-9.4a2.786,2.786,0,0,0,.03-3.958,2.785,2.785,0,0,0-3.93,0l-10.41,10.385a4.07,4.07,0,0,0,5.76,5.751l7.51-7.5a0.626,0.626,0,0,1,.88,0,0.619,0.619,0,0,1,0,.873l-7.51,7.5A5.3,5.3,0,0,1,1421.49,532.605Z" transform="translate(-1416.19 -512)"/>
</svg>
