<svg xmlns="http://www.w3.org/2000/svg" width="24" height="24" viewBox="0 0 24 24">
  <defs>
    <style>
      .cls-1 {
        fill: #fff;
        fill-rule: evenodd;
      }
    </style>
  </defs>
  <path id="upload" class="cls-1" d="M716.062,344.906a1.122,1.122,0,0,0,1.126-1.125v-7.875h4.124a0.845,0.845,0,0,0,.844-0.586,0.864,0.864,0,0,0-.187-1.008l-7.125-7.124a0.905,0.905,0,0,0-1.313,0l-7.125,7.124a0.862,0.862,0,0,0-.187,1.008,0.844,0.844,0,0,0,.843.586h4.126v7.875a1.12,1.12,0,0,0,1.124,1.125h3.75Zm10.126-.375a1.122,1.122,0,0,0-1.126-1.125h-6.374v0.375a2.641,2.641,0,0,1-2.626,2.625h-3.75a2.639,2.639,0,0,1-2.624-2.625v-0.375h-6.376a1.12,1.12,0,0,0-1.124,1.125v5.25a1.12,1.12,0,0,0,1.124,1.125h21.75a1.122,1.122,0,0,0,1.126-1.125v-5.25Zm-5.813,4.125a0.96,0.96,0,1,1-.281-0.656A0.9,0.9,0,0,1,720.375,348.656Zm3,0a0.96,0.96,0,1,1-.281-0.656A0.9,0.9,0,0,1,723.375,348.656Z" transform="translate(-702.188 -326.906)"/>
</svg>
