<?xml version="1.0" encoding="utf-8"?>
<!-- Generator: Adobe Illustrator 19.2.0, SVG Export Plug-In . SVG Version: 6.00 Build 0)  -->
<svg version="1.1" id="Layer_1" xmlns="http://www.w3.org/2000/svg" xmlns:xlink="http://www.w3.org/1999/xlink" x="0px" y="0px"
	 viewBox="0 0 48 48" style="enable-background:new 0 0 48 48;" xml:space="preserve">
<style type="text/css">
	.st0{fill:none;stroke:#000000;stroke-width:2;stroke-miterlimit:10;}
</style>
<title>3. Communication</title>
<g id="Add_Contacts">
	<g id="Add">
		<line class="st0" x1="31" y1="15" x2="47" y2="15"/>
		<line class="st0" x1="39" y1="23" x2="39" y2="7"/>
	</g>
	<path class="st0" d="M27,12.4c0.1-4-3.1-7.4-7.2-7.4c-0.1,0-0.2,0-0.3,0c-4.1,0-7.7,3.3-7.5,7.4c0,0.8,0.8,5,0.8,5
		c0.6,3.6,3,6.6,6.6,6.6s6-3,6.7-6.6C26.1,17.4,26.9,13.3,27,12.4z"/>
	<path class="st0" d="M37.9,43H1l0.6-7.2c0.4-2.7,3.1-4.6,5.9-5.1l12-1.6l12.1,1.6c3.1,0.6,5.8,2.3,6,5.4L37.9,43z"/>
</g>
</svg>
