<?xml version="1.0" encoding="utf-8"?>
<!-- Generator: Adobe Illustrator 19.2.0, SVG Export Plug-In . SVG Version: 6.00 Build 0)  -->
<svg version="1.1" id="Layer_1" xmlns="http://www.w3.org/2000/svg" xmlns:xlink="http://www.w3.org/1999/xlink" x="0px" y="0px"
	 viewBox="0 0 48 48" style="enable-background:new 0 0 48 48;" xml:space="preserve">
<style type="text/css">
	.st0{fill:none;stroke:#000000;stroke-width:2;stroke-miterlimit:10;}
</style>
<title>Untitled-24</title>
<path id="Airplane" class="st0" d="M44,32.5v-3.9c0.1-1.2-0.4-2.4-1.3-3.1L28,16.5v-3.9C28,4.5,27,1,24,1s-4,3.6-4,11.6v3.9
	L5.3,25.6c-1,0.7-1.5,1.9-1.3,3v3.9l16.6-5.8l0.8,12.2L15.8,42c-0.5,0.3-0.8,0.9-0.8,1.5V47l9-2.7l9,2.7v-3.6c0-0.6-0.3-1.1-0.7-1.5
	l-5.6-3.1l0.7-12.2L44,32.5z"/>
</svg>
