<?xml version="1.0" encoding="utf-8"?>
<!-- Generator: Adobe Illustrator 19.2.0, SVG Export Plug-In . SVG Version: 6.00 Build 0)  -->
<svg version="1.1" id="Layer_1" xmlns="http://www.w3.org/2000/svg" xmlns:xlink="http://www.w3.org/1999/xlink" x="0px" y="0px"
	 viewBox="0 0 48 48" style="enable-background:new 0 0 48 48;" xml:space="preserve">
<style type="text/css">
	.st0{fill:none;stroke:#000000;stroke-width:2;stroke-miterlimit:10;}
</style>
<title>Untitled-12</title>
<g id="Album">
	<rect x="7" y="7" class="st0" width="40" height="40"/>
	<path d="M22,18.5v14.1l-3.4,0.4C17.1,33.3,16,34.5,16,36l0,0c0,1.7,1.3,3,3,3c0.1,0,0.2,0,0.4,0l2-0.3c1.5-0.2,2.6-1.5,2.6-3V21
		l10-2.5v10.7l-3.4,0.4c-1.5,0.2-2.6,1.5-2.6,3l0,0c0,1.7,1.3,3,3,3c0.1,0,0.2,0,0.4,0l2-0.3c1.5-0.2,2.6-1.5,2.6-3V15L22,18.5z"/>
	<polyline class="st0" points="41,7 41,1 1,1 1,41 7,41 	"/>
</g>
</svg>
