<?xml version="1.0" encoding="utf-8"?>
<!-- Generator: Adobe Illustrator 19.2.0, SVG Export Plug-In . SVG Version: 6.00 Build 0)  -->
<svg version="1.1" id="Layer_1" xmlns="http://www.w3.org/2000/svg" xmlns:xlink="http://www.w3.org/1999/xlink" x="0px" y="0px"
	 viewBox="0 0 48 48" style="enable-background:new 0 0 48 48;" xml:space="preserve">
<style type="text/css">
	.st0{fill:none;stroke:#000000;stroke-width:2;stroke-miterlimit:10;}
</style>
<title>Untitled-14</title>
<g id="Apple_Watch_1_">
	<polyline class="st0" points="13,9 15,1 27,1 29,9 	"/>
	<polyline class="st0" points="29,39 27,47 15,47 13,39 	"/>
	<path class="st0" d="M34,14h2c2.2,0,4,1.8,4,4v0c0,2.2-1.8,4-4,4h-2"/>
	<path class="st0" d="M29.8,39H12.2C9.9,39,8,37.1,8,34.8V13.2C8,10.9,9.9,9,12.2,9h17.7c2.3,0,4.2,1.9,4.2,4.2v21.7
		C34,37.1,32.1,39,29.8,39z"/>
	<line class="st0" x1="38" y1="25" x2="38" y2="35"/>
</g>
</svg>
