<?xml version="1.0" encoding="utf-8"?>
<!-- Generator: Adobe Illustrator 19.2.0, SVG Export Plug-In . SVG Version: 6.00 Build 0)  -->
<svg version="1.1" id="Layer_1" xmlns="http://www.w3.org/2000/svg" xmlns:xlink="http://www.w3.org/1999/xlink" x="0px" y="0px"
	 viewBox="0 0 48 48" style="enable-background:new 0 0 48 48;" xml:space="preserve">
<style type="text/css">
	.st0{fill:none;stroke:#000000;stroke-width:2;stroke-miterlimit:10;}
</style>
<title>Untitled-20</title>
<g id="Bathtub">
	<path class="st0" d="M4,22h40l0,0v8c0,5.5-4.5,10-10,10H14C8.5,40,4,35.5,4,30V22L4,22z"/>
	<line class="st0" x1="0" y1="22" x2="48" y2="22"/>
	<path class="st0" d="M28,10L28,10c0-4.4,3.6-8,8-8l0,0c4.4,0,8,3.6,8,8v12"/>
	<line class="st0" x1="12.1" y1="39.8" x2="10" y2="46"/>
	<line class="st0" x1="35.9" y1="39.8" x2="38" y2="46"/>
	<circle cx="23" cy="14" r="2"/>
	<circle cx="31" cy="16" r="2"/>
</g>
</svg>
