<?xml version="1.0" encoding="utf-8"?>
<!-- Generator: Adobe Illustrator 19.2.0, SVG Export Plug-In . SVG Version: 6.00 Build 0)  -->
<svg version="1.1" id="Layer_1" xmlns="http://www.w3.org/2000/svg" xmlns:xlink="http://www.w3.org/1999/xlink" x="0px" y="0px"
	 viewBox="0 0 48 48" style="enable-background:new 0 0 48 48;" xml:space="preserve">
<style type="text/css">
	.st0{fill:none;stroke:#000000;stroke-width:2;stroke-miterlimit:10;}
</style>
<title>Untitled-18</title>
<g id="Bell">
	<path class="st0" d="M45,35.1V39H3v-3.9c0-2.7,1.1-5.2,2.9-7.1l4.1-4.1c1.9-1.9,2.9-4.4,2.9-7.1V12c0-6.1,4.9-11,11-11l0,0
		c6.1,0,11,4.9,11,11v4.9c0,2.7,1.1,5.2,2.9,7.1l4.1,4.1C43.9,29.9,45,32.5,45,35.1z"/>
	<path class="st0" d="M18,39v2c0,3.3,2.7,6,6,6l0,0c3.3,0,6-2.7,6-6v-2"/>
</g>
</svg>
