<?xml version="1.0" encoding="utf-8"?>
<!-- Generator: Adobe Illustrator 19.2.0, SVG Export Plug-In . SVG Version: 6.00 Build 0)  -->
<svg version="1.1" id="Layer_1" xmlns="http://www.w3.org/2000/svg" xmlns:xlink="http://www.w3.org/1999/xlink" x="0px" y="0px"
	 viewBox="0 0 48 48" style="enable-background:new 0 0 48 48;" xml:space="preserve">
<style type="text/css">
	.st0{fill:none;stroke:#000000;stroke-width:2;stroke-miterlimit:10;}
</style>
<title>Untitled-22</title>
<g id="Birthday_Cake">
	<path class="st0" d="M4,43v-8c0-3.3,2.7-6,6-6h28c3.3,0,6,2.7,6,6v8"/>
	<line class="st0" x1="0" y1="43" x2="48" y2="43"/>
	<polyline class="st0" points="10,29 10,17 14,17 14,29 	"/>
	<polyline class="st0" points="22,29 22,17 26,17 26,29 	"/>
	<polyline class="st0" points="34,29 34,17 38,17 38,29 	"/>
	<path class="st0" d="M9.9,12L9.9,12c-1.2-1.3-1.2-3.3,0-4.7L12,5l2.1,2.3c1.2,1.3,1.2,3.3,0,4.7l0,0c-1,1.2-2.8,1.3-4,0.3
		C10.1,12.2,10,12.1,9.9,12z"/>
	<path class="st0" d="M21.9,12L21.9,12c-1.2-1.3-1.2-3.3,0-4.7L24,5l2.1,2.3c1.2,1.3,1.2,3.3,0,4.7l0,0c-1,1.2-2.8,1.3-4,0.3
		C22.1,12.2,22,12.1,21.9,12z"/>
	<path class="st0" d="M33.9,12L33.9,12c-1.2-1.3-1.2-3.3,0-4.7L36,5l2.1,2.3c1.2,1.3,1.2,3.3,0,4.7l0,0c-1,1.2-2.8,1.3-4,0.3
		C34.1,12.2,34,12.1,33.9,12z"/>
</g>
</svg>
