<?xml version="1.0" encoding="utf-8"?>
<!-- Generator: Adobe Illustrator 19.2.0, SVG Export Plug-In . SVG Version: 6.00 Build 0)  -->
<svg version="1.1" id="Layer_1" xmlns="http://www.w3.org/2000/svg" xmlns:xlink="http://www.w3.org/1999/xlink" x="0px" y="0px"
	 viewBox="0 0 48 48" style="enable-background:new 0 0 48 48;" xml:space="preserve">
<style type="text/css">
	.st0{fill:none;stroke:#000000;stroke-width:2;stroke-miterlimit:10;}
</style>
<title>3. Communication</title>
<g id="Box_-_In">
	<line class="st0" x1="24" y1="1" x2="24" y2="23"/>
	<polyline class="st0" points="15,14 24,23 33,14 	"/>
	<g id="Inbox">
		<path class="st0" d="M39,17L39,17l8,12l-1.9,11.3c-0.6,3.9-4,6.7-7.9,6.7H10.8c-3.9,0-7.2-2.8-7.9-6.7L1,29l8-12l0,0"/>
		<path class="st0" d="M1,29h16l0.6,2.2C18.4,34,21,36,24,36l0,0c3,0,5.6-2,6.4-4.8L31,29h16"/>
	</g>
</g>
</svg>
