<?xml version="1.0" encoding="utf-8"?>
<!-- Generator: Adobe Illustrator 19.2.0, SVG Export Plug-In . SVG Version: 6.00 Build 0)  -->
<svg version="1.1" id="Layer_1" xmlns="http://www.w3.org/2000/svg" xmlns:xlink="http://www.w3.org/1999/xlink" x="0px" y="0px"
	 viewBox="0 0 48 48" style="enable-background:new 0 0 48 48;" xml:space="preserve">
<style type="text/css">
	.st0{fill:none;stroke:#000000;stroke-width:2;stroke-miterlimit:10;}
</style>
<title>Untitled-24</title>
<g id="Bus_1_">
	<circle class="st0" cx="12" cy="34" r="3"/>
	<circle class="st0" cx="36" cy="34" r="3"/>
	<path class="st0" d="M43,45c0,1.1-0.9,2-2,2h-4.6c-0.9,0-1.6-0.6-1.9-1.4L33,41H15l-1.5,4.6c-0.3,0.8-1,1.4-1.9,1.4H7
		c-1.1,0-2-0.9-2-2V8.1c0-2.9,2-5.3,4.9-5.9C13,1.6,17.8,1,24,1s11,0.6,14.1,1.2C41,2.8,43,5.2,43,8.1V45z"/>
	<line class="st0" x1="5" y1="27" x2="43" y2="27"/>
</g>
</svg>
