<?xml version="1.0" encoding="utf-8"?>
<!-- Generator: Adobe Illustrator 19.2.0, SVG Export Plug-In . SVG Version: 6.00 Build 0)  -->
<svg version="1.1" id="Layer_1" xmlns="http://www.w3.org/2000/svg" xmlns:xlink="http://www.w3.org/1999/xlink" x="0px" y="0px"
	 viewBox="0 0 48 48" style="enable-background:new 0 0 48 48;" xml:space="preserve">
<style type="text/css">
	.st0{fill:none;stroke:#000000;stroke-width:2;stroke-miterlimit:10;}
</style>
<title>Untitled-24</title>
<g id="Car_1_">
	<path class="st0" d="M47,41c0,1.1-0.9,2-2,2h-4.3c-1,0-1.8-0.7-2-1.7L38,37H10l-0.7,4.3c-0.2,1-1,1.7-2,1.7H3c-1.1,0-2-0.9-2-2
		V30.3c0-2.2,0.7-4.3,2-6L7,19l2.6-7.9c0.9-2.7,3.2-4.8,6-5.3C17.9,5.4,20.8,5,24,5s6.1,0.4,8.3,0.8c2.8,0.5,5.1,2.6,6,5.3L41,19
		l4,5.3c1.3,1.7,2,3.8,2,6V41z"/>
	<path class="st0" d="M39.3,14H43c1.4,0,2.5,1.1,2.5,2.5v0c0,1.4-1.1,2.5-2.5,2.5h-2"/>
	<path class="st0" d="M8.7,14H5c-1.4,0-2.5,1.1-2.5,2.5v0C2.5,17.9,3.6,19,5,19h2"/>
	<path class="st0" d="M10.9,32H7.1C6,32,5,31,5,29.9v-0.5c0-1.3,1.1-2.3,2.4-2.1l3.8,0.5c1.1,0.1,1.9,1,1.9,2.1v0
		C13,31,12,32,10.9,32z"/>
	<path class="st0" d="M37.1,32h3.8c1.2,0,2.1-1,2.1-2.1v-0.5c0-1.3-1.1-2.3-2.4-2.1l-3.8,0.5c-1.1,0.1-1.9,1-1.9,2.1v0
		C35,31,36,32,37.1,32z"/>
	<line class="st0" x1="16" y1="29" x2="31.5" y2="29"/>
</g>
</svg>
