<?xml version="1.0" encoding="utf-8"?>
<!-- Generator: Adobe Illustrator 19.2.0, SVG Export Plug-In . SVG Version: 6.00 Build 0)  -->
<svg version="1.1" id="Layer_1" xmlns="http://www.w3.org/2000/svg" xmlns:xlink="http://www.w3.org/1999/xlink" x="0px" y="0px"
	 viewBox="0 0 48 48" style="enable-background:new 0 0 48 48;" xml:space="preserve">
<style type="text/css">
	.st0{fill:none;stroke:#000000;stroke-width:2;stroke-miterlimit:10;}
</style>
<title>Untitled-22</title>
<g id="Carrot">
	<path class="st0" d="M2.2,45.8L2.2,45.8c-1.4-1.4-1.6-3.5-0.6-5.1l17-26.9c3.2-5.2,10.1-6.8,15.3-3.5c0.7,0.5,1.4,1,2,1.6l0,0
		c4.4,4.4,4.3,11.6-0.1,16c-0.6,0.5-1.2,1-1.8,1.5L7.3,46.4C5.7,47.4,3.6,47.2,2.2,45.8z"/>
	<line class="st0" x1="15.4" y1="18.8" x2="22.2" y2="25.6"/>
	<line class="st0" x1="9.3" y1="28.5" x2="13.9" y2="33"/>
	<line class="st0" x1="47" y1="1" x2="36" y2="12"/>
	<line class="st0" x1="36" y1="0" x2="36" y2="12"/>
	<line class="st0" x1="48" y1="12" x2="36" y2="12"/>
</g>
</svg>
