<?xml version="1.0" encoding="utf-8"?>
<!-- Generator: Adobe Illustrator 19.2.0, SVG Export Plug-In . SVG Version: 6.00 Build 0)  -->
<svg version="1.1" id="Layer_1" xmlns="http://www.w3.org/2000/svg" xmlns:xlink="http://www.w3.org/1999/xlink" x="0px" y="0px"
	 viewBox="0 0 48 48" style="enable-background:new 0 0 48 48;" xml:space="preserve">
<style type="text/css">
	.st0{fill:none;stroke:#000000;stroke-width:2;stroke-miterlimit:10;}
</style>
<title>Untitled-20</title>
<g id="Chair">
	<line class="st0" x1="14.7" y1="37" x2="10" y2="48"/>
	<line class="st0" x1="33.1" y1="37" x2="38" y2="48"/>
	<path class="st0" d="M35.7,36.7c4.8-1.4,8.3-5.3,8.3-10C44,21.2,36.7,1,24,1C10.4,1,4,21.6,4,26.7c0,4.7,3.5,8.6,8.3,9.9
		c1.2,0.2,2.4,0.3,3.6,0.3h16.2C33.3,37,34.5,36.9,35.7,36.7z"/>
	<path class="st0" d="M14,27c3.2-1.4,6.6-2,10-2c3.4,0,6.8,0.6,10,2"/>
</g>
</svg>
