<?xml version="1.0" encoding="utf-8"?>
<!-- Generator: Adobe Illustrator 19.2.0, SVG Export Plug-In . SVG Version: 6.00 Build 0)  -->
<svg version="1.1" id="Layer_1" xmlns="http://www.w3.org/2000/svg" xmlns:xlink="http://www.w3.org/1999/xlink" x="0px" y="0px"
	 viewBox="0 0 48 48" style="enable-background:new 0 0 48 48;" xml:space="preserve">
<style type="text/css">
	.st0{fill:none;stroke:#000000;stroke-width:2;stroke-miterlimit:10;}
</style>
<title>Untitled-14</title>
<g id="Chip">
	<path class="st0" d="M9,5h30c2.2,0,4,1.8,4,4v30c0,2.2-1.8,4-4,4H9c-2.2,0-4-1.8-4-4V9C5,6.8,6.8,5,9,5z"/>
	<rect x="17" y="17" class="st0" width="14" height="14"/>
	<line class="st0" x1="0" y1="14" x2="5" y2="14"/>
	<line class="st0" x1="0" y1="24" x2="5" y2="24"/>
	<line class="st0" x1="0" y1="34" x2="5" y2="34"/>
	<line class="st0" x1="43" y1="14" x2="48" y2="14"/>
	<line class="st0" x1="43" y1="24" x2="48" y2="24"/>
	<line class="st0" x1="43" y1="34" x2="48" y2="34"/>
</g>
</svg>
