<?xml version="1.0" encoding="utf-8"?>
<!-- Generator: Adobe Illustrator 19.2.0, SVG Export Plug-In . SVG Version: 6.00 Build 0)  -->
<svg version="1.1" id="Layer_1" xmlns="http://www.w3.org/2000/svg" xmlns:xlink="http://www.w3.org/1999/xlink" x="0px" y="0px"
	 viewBox="0 0 48 48" style="enable-background:new 0 0 48 48;" xml:space="preserve">
<style type="text/css">
	.st0{fill:none;stroke:#000000;stroke-width:2;stroke-miterlimit:10;}
</style>
<title>Untitled-23</title>
<g id="Cloudy">
	<path class="st0" d="M39,24.5L39,24.5c-0.3-5.3-4.7-9.4-10-9.5c-5.5-0.1-9.9,4.3-10,9.8c0,0.1,0,0.2,0,0.2v1.5h-1.5
		c-3.6,0-6.5,2.9-6.5,6.5l0,0v7h28.2c4.3,0,7.7-3.6,7.7-7.8S43.3,24.5,39,24.5z"/>
	<path class="st0" d="M28.5,14.9C27.2,10.8,23.3,8,19,8c-5.5-0.1-9.9,4.3-10,9.8c0,0.1,0,0.2,0,0.2v1.5H7.5C4,19.6,1.1,22.5,1,26v8
		h10"/>
</g>
</svg>
