<?xml version="1.0" encoding="utf-8"?>
<!-- Generator: Adobe Illustrator 19.2.0, SVG Export Plug-In . SVG Version: 6.00 Build 0)  -->
<svg version="1.1" id="Layer_1" xmlns="http://www.w3.org/2000/svg" xmlns:xlink="http://www.w3.org/1999/xlink" x="0px" y="0px"
	 viewBox="0 0 48 48" style="enable-background:new 0 0 48 48;" xml:space="preserve">
<style type="text/css">
	.st0{fill:none;stroke:#000000;stroke-width:2;stroke-miterlimit:10;}
</style>
<title>Untitled-15</title>
<g id="Cloud_-_Download_1_">
	<g>
		<line class="st0" x1="24" y1="23" x2="24" y2="47"/>
		<polyline class="st0" points="16,39 24,47 32,39 		"/>
	</g>
	<path class="st0" d="M32,33c0,0,5,0,5,0c5.5,0,10-4.5,10-10s-4.5-10-10-10c0,0,0,0,0,0C36.4,6.3,30.8,1,24,1c-7.2,0-13,5.8-13,13v2
		c0,0-1.5,0-1.5,0C5,16,1.3,19.5,1,24h0v9h15"/>
</g>
</svg>
