<?xml version="1.0" encoding="utf-8"?>
<!-- Generator: Adobe Illustrator 19.2.0, SVG Export Plug-In . SVG Version: 6.00 Build 0)  -->
<svg version="1.1" id="Layer_1" xmlns="http://www.w3.org/2000/svg" xmlns:xlink="http://www.w3.org/1999/xlink" x="0px" y="0px"
	 viewBox="0 0 48 48" style="enable-background:new 0 0 48 48;" xml:space="preserve">
<style type="text/css">
	.st0{fill:none;stroke:#000000;stroke-width:2;stroke-miterlimit:10;}
</style>
<title>Untitled-22</title>
<g id="Coffee">
	<path class="st0" d="M20,45L20,45c-7.6,0-14.3-5.2-16.1-12.6L1,21h38l-2.8,11.4C34.3,39.8,27.6,45,20,45z"/>
	<path class="st0" d="M39,21h2c3.3,0,6,2.7,6,6l0,0c0,3.3-2.7,6-6,6h-5"/>
	<path class="st0" d="M15,16v-4c0-1.7,1.3-3,3-3l0,0c1.7,0,3-1.3,3-3V2"/>
	<path class="st0" d="M25,16v-4c0-1.7,1.3-3,3-3l0,0c1.7,0,3-1.3,3-3V2"/>
</g>
</svg>
