<?xml version="1.0" encoding="utf-8"?>
<!-- Generator: Adobe Illustrator 19.2.0, SVG Export Plug-In . SVG Version: 6.00 Build 0)  -->
<svg version="1.1" id="Layer_1" xmlns="http://www.w3.org/2000/svg" xmlns:xlink="http://www.w3.org/1999/xlink" x="0px" y="0px"
	 viewBox="0 0 48 48" style="enable-background:new 0 0 48 48;" xml:space="preserve">
<style type="text/css">
	.st0{fill:none;stroke:#000000;stroke-width:2;stroke-miterlimit:10;}
</style>
<title>3. Communication</title>
<g id="Contacts_2_">
	<g id="Notebook_2_">
		<path class="st0" d="M28.5,47L5,45.5v-43L28.5,1C33.1,0.7,37,4.4,37,9v30C37,43.6,33.1,47.3,28.5,47z"/>
	</g>
	<path d="M17.7,22.2l0.6-1.5c0.1-0.3,0.2-0.7,0.1-1.1L17.5,16L13,16.6c0.2,3.9,1.8,7.7,4.7,10.6c3,3,6.9,4.6,10.8,4.7l0.5-4.7
		l-3.3-0.8c-0.4-0.1-0.8,0-1.1,0.1l-1.7,0.7c-1.1-0.7-1.9-1.3-2.9-2.3C19,24.2,18.4,23.3,17.7,22.2z"/>
	<path class="st0" d="M34.8,4H37c3.3,0,6,2.7,6,6v28c0,3.3-2.7,6-6,6h-1.4"/>
</g>
</svg>
