<?xml version="1.0" encoding="utf-8"?>
<!-- Generator: Adobe Illustrator 19.2.0, SVG Export Plug-In . SVG Version: 6.00 Build 0)  -->
<svg version="1.1" id="Layer_1" xmlns="http://www.w3.org/2000/svg" xmlns:xlink="http://www.w3.org/1999/xlink" x="0px" y="0px"
	 viewBox="0 0 48 48" style="enable-background:new 0 0 48 48;" xml:space="preserve">
<style type="text/css">
	.st0{fill:none;stroke:#000000;stroke-width:2;stroke-miterlimit:10;}
</style>
<title>Untitled-20</title>
<g id="Dumbbell">
	<line class="st0" x1="15" y1="24" x2="33" y2="24"/>
	<path class="st0" d="M11,10h4l0,0v28l0,0h-4c-2.2,0-4-1.8-4-4V14C7,11.8,8.8,10,11,10z"/>
	<path class="st0" d="M33,10h4c2.2,0,4,1.8,4,4v20c0,2.2-1.8,4-4,4h-4l0,0V10L33,10z"/>
	<path class="st0" d="M41,16h2c2.2,0,4,1.8,4,4v8c0,2.2-1.8,4-4,4h-2l0,0V16L41,16z"/>
	<path class="st0" d="M5,16h2l0,0v16l0,0H5c-2.2,0-4-1.8-4-4v-8C1,17.8,2.8,16,5,16z"/>
</g>
</svg>
