<?xml version="1.0" encoding="utf-8"?>
<!-- Generator: Adobe Illustrator 19.2.0, SVG Export Plug-In . SVG Version: 6.00 Build 0)  -->
<svg version="1.1" id="Layer_1" xmlns="http://www.w3.org/2000/svg" xmlns:xlink="http://www.w3.org/1999/xlink" x="0px" y="0px"
	 viewBox="0 0 48 48" style="enable-background:new 0 0 48 48;" xml:space="preserve">
<style type="text/css">
	.st0{fill:none;stroke:#000000;stroke-width:2;stroke-miterlimit:10;}
</style>
<title>Untitled-15</title>
<g id="File_-_Cloud">
	<path class="st0" d="M6,1h36l0,0v34c0,6.6-5.4,12-12,12H6l0,0V1L6,1z"/>
	<path id="Cloud" class="st0" d="M29,21.2L29,21.2c-0.1-2.8-2.4-4.9-5.2-4.8c-2.8,0.1-4.9,2.4-4.8,5.2l0,0V22h-0.4
		c-2,0.1-3.5,1.7-3.6,3.7V29h14c2.2,0,4-1.8,4-4c0-2.1-1.7-3.8-3.8-3.8C29.1,21.2,29.1,21.2,29,21.2z"/>
</g>
</svg>
