<?xml version="1.0" encoding="utf-8"?>
<!-- Generator: Adobe Illustrator 19.2.0, SVG Export Plug-In . SVG Version: 6.00 Build 0)  -->
<svg version="1.1" id="Layer_1" xmlns="http://www.w3.org/2000/svg" xmlns:xlink="http://www.w3.org/1999/xlink" x="0px" y="0px"
	 viewBox="0 0 48 48" style="enable-background:new 0 0 48 48;" xml:space="preserve">
<style type="text/css">
	.st0{fill:none;stroke:#000000;stroke-width:2;stroke-miterlimit:10;}
</style>
<title>Untitled-15</title>
<g id="File_-_Music">
	<path class="st0" d="M7,1h34l0,0v34c0,6.6-5.4,12-12,12H7l0,0V1L7,1z"/>
	<path d="M31,15.2L24,14v11.6L20.6,26c-1.5,0.3-2.6,1.5-2.6,3l0,0c0,1.7,1.3,3,3,3c0.1,0,0.2,0,0.4,0l2-0.3c1.5-0.2,2.6-1.5,2.6-3
		V19l5,1V15.2L31,15.2z"/>
</g>
</svg>
