<?xml version="1.0" encoding="utf-8"?>
<!-- Generator: Adobe Illustrator 19.2.0, SVG Export Plug-In . SVG Version: 6.00 Build 0)  -->
<svg version="1.1" id="Layer_1" xmlns="http://www.w3.org/2000/svg" xmlns:xlink="http://www.w3.org/1999/xlink" x="0px" y="0px"
	 viewBox="0 0 48 48" style="enable-background:new 0 0 48 48;" xml:space="preserve">
<style type="text/css">
	.st0{fill:none;stroke:#000000;stroke-width:2;stroke-miterlimit:10;}
</style>
<title>Untitled-15</title>
<g id="File_-_Lock">
	<path class="st0" d="M7,1h34l0,0v34c0,6.6-5.4,12-12,12H7l0,0V1L7,1z"/>
	<g id="Lock">
		<path class="st0" d="M27.1,31h-6.2c-1.6,0-2.9-1.3-2.9-2.9c0,0,0,0,0,0V21h12v7.1C30,29.7,28.7,31,27.1,31z"/>
		<path class="st0" d="M21,21v-3c0-1.7,1.3-3,3-3l0,0c1.7,0,3,1.3,3,3v3"/>
	</g>
</g>
</svg>
