<?xml version="1.0" encoding="utf-8"?>
<!-- Generator: Adobe Illustrator 19.2.0, SVG Export Plug-In . SVG Version: 6.00 Build 0)  -->
<svg version="1.1" id="Layer_1" xmlns="http://www.w3.org/2000/svg" xmlns:xlink="http://www.w3.org/1999/xlink" x="0px" y="0px"
	 viewBox="0 0 48 48" style="enable-background:new 0 0 48 48;" xml:space="preserve">
<style type="text/css">
	.st0{fill:none;stroke:#000000;stroke-width:2;stroke-miterlimit:10;}
</style>
<title>Untitled-25</title>
<g id="First_Aid">
	<path class="st0" d="M1,12h46l0,0v24c0,4.4-3.6,8-8,8H9c-4.4,0-8-3.6-8-8V12L1,12z"/>
	<path class="st0" d="M15,12l1.2-5c0.5-1.8,2.1-3,3.9-3h7.8c1.8,0,3.4,1.2,3.9,3l1.2,5"/>
	<polygon class="st0" points="32,25 27,25 27,20 21,20 21,25 16,25 16,31 21,31 21,36 27,36 27,31 32,31 	"/>
</g>
</svg>
