<?xml version="1.0" encoding="utf-8"?>
<!-- Generator: Adobe Illustrator 19.2.0, SVG Export Plug-In . SVG Version: 6.00 Build 0)  -->
<svg version="1.1" id="Layer_1" xmlns="http://www.w3.org/2000/svg" xmlns:xlink="http://www.w3.org/1999/xlink" x="0px" y="0px"
	 viewBox="0 0 48 48" style="enable-background:new 0 0 48 48;" xml:space="preserve">
<style type="text/css">
	.st0{fill:none;stroke:#000000;stroke-width:2;stroke-miterlimit:10;}
</style>
<title>Untitled-15</title>
<g id="Folder_-_Lock">
	<path id="Folder" class="st0" d="M39,43H9c-4.4,0-8-3.6-8-7V5h16l4,6h26v24C47,39.4,43.4,43,39,43z"/>
	<g id="Lock">
		<path class="st0" d="M27.1,35h-6.2c-1.6,0-2.9-1.3-2.9-2.9c0,0,0,0,0,0V25h12v7.1C30,33.7,28.7,35,27.1,35z"/>
		<path class="st0" d="M21,25v-3c0-1.7,1.3-3,3-3l0,0c1.7,0,3,1.3,3,3v3"/>
	</g>
</g>
</svg>
