<?xml version="1.0" encoding="utf-8"?>
<!-- Generator: Adobe Illustrator 19.2.0, SVG Export Plug-In . SVG Version: 6.00 Build 0)  -->
<svg version="1.1" id="Layer_1" xmlns="http://www.w3.org/2000/svg" xmlns:xlink="http://www.w3.org/1999/xlink" x="0px" y="0px"
	 viewBox="0 0 48 48" style="enable-background:new 0 0 48 48;" xml:space="preserve">
<style type="text/css">
	.st0{fill:none;stroke:#000000;stroke-width:2;stroke-miterlimit:10;}
</style>
<title>Untitled-15</title>
<g id="Folder_-_Cloud">
	<path id="Folder" class="st0" d="M39,43H9c-4.4,0-8-3.6-8-7V5h16l4,6h26v24C47,39.4,43.4,43,39,43z"/>
	<path id="Cloud" class="st0" d="M29,25.4L29,25.4c-0.1-2.8-2.4-4.9-5.2-4.8C21,20.7,18.9,23,19,25.8V26h-0.4
		c-2,0.2-3.5,1.9-3.6,3.9V33h14c2.1,0.1,3.9-1.6,4-3.8c0,0,0-0.1,0-0.1c0-2.1-1.7-3.7-3.7-3.7C29.2,25.4,29.1,25.4,29,25.4z"/>
</g>
</svg>
