<?xml version="1.0" encoding="utf-8"?>
<!-- Generator: Adobe Illustrator 19.2.0, SVG Export Plug-In . SVG Version: 6.00 Build 0)  -->
<svg version="1.1" id="Layer_1" xmlns="http://www.w3.org/2000/svg" xmlns:xlink="http://www.w3.org/1999/xlink" x="0px" y="0px"
	 viewBox="0 0 48 48" style="enable-background:new 0 0 48 48;" xml:space="preserve">
<style type="text/css">
	.st0{fill:none;stroke:#000000;stroke-width:2;stroke-miterlimit:10;}
</style>
<title>Untitled-22</title>
<g id="Fork_And_Knife">
	<path class="st0" d="M38,47L38,47c-1.7,0-3-1.3-3-3V25.5l-1.7-1.7c-1.5-1.5-2.3-3.5-2.3-5.6V11c0-5.5,4.5-10,10-10l0,0v43
		C41,45.7,39.7,47,38,47z"/>
	<path class="st0" d="M24,1l1,13.1c0,1.9-1.2,3.7-2.4,5.1L19,23v21c0,1.7-1.3,3-3,3l0,0c-1.7,0-3-1.3-3-3V23l-3.6-3.8
		C8,17.8,7.2,16,7,14L8,1"/>
	<line class="st0" x1="13" y1="1" x2="13" y2="15"/>
	<line class="st0" x1="19" y1="1" x2="19" y2="15"/>
</g>
</svg>
