<?xml version="1.0" encoding="utf-8"?>
<!-- Generator: Adobe Illustrator 19.2.0, SVG Export Plug-In . SVG Version: 6.00 Build 0)  -->
<svg version="1.1" id="Layer_1" xmlns="http://www.w3.org/2000/svg" xmlns:xlink="http://www.w3.org/1999/xlink" x="0px" y="0px"
	 viewBox="0 0 48 48" style="enable-background:new 0 0 48 48;" xml:space="preserve">
<style type="text/css">
	.st0{fill:none;stroke:#000000;stroke-width:2;stroke-miterlimit:10;}
</style>
<title>Untitled-14</title>
<g id="Gamepad">
	<circle class="st0" cx="14" cy="22" r="5"/>
	<circle cx="34" cy="18" r="2"/>
	<circle cx="34" cy="26" r="2"/>
	<circle cx="38" cy="22" r="2"/>
	<circle cx="30" cy="22" r="2"/>
	<path class="st0" d="M46.7,28.5L42,13c0,0-5.7-4-18-4S6,13,6,13L1.3,28.5C0.1,32.9,2.6,37.5,7,38.7c2.7,0.8,5.7,0,7.7-2
		c2.5-2.4,5.8-3.8,9.3-3.7l0,0c3.5,0,6.8,1.3,9.2,3.7c2,2,5,2.8,7.7,2C45.3,37.4,47.9,32.9,46.7,28.5z"/>
</g>
</svg>
