<?xml version="1.0" encoding="utf-8"?>
<!-- Generator: Adobe Illustrator 19.2.0, SVG Export Plug-In . SVG Version: 6.00 Build 0)  -->
<svg version="1.1" id="Layer_1" xmlns="http://www.w3.org/2000/svg" xmlns:xlink="http://www.w3.org/1999/xlink" x="0px" y="0px"
	 viewBox="0 0 48 48" style="enable-background:new 0 0 48 48;" xml:space="preserve">
<style type="text/css">
	.st0{fill:none;stroke:#000000;stroke-width:2;stroke-miterlimit:10;}
</style>
<title>Financial</title>
<g id="Gift">
	<rect x="1" y="12" class="st0" width="46" height="8"/>
	<path class="st0" d="M43,20l-1.4,18.6c-0.3,4.2-3.8,7.4-8,7.4H14.4c-4.2,0-7.7-3.2-8-7.4L5,20"/>
	<line class="st0" x1="24" y1="12" x2="24" y2="46"/>
	<path class="st0" d="M14,12c-2.8,0-5-2.2-5-5s2.2-5,5-5c2.8,0,4.4,1,6.2,3.8C21,6.8,24,12,24,12"/>
	<path class="st0" d="M34,12c2.8,0,5-2.2,5-5s-2.2-5-5-5c-2.8,0-4.4,1-6.2,3.8C27,6.8,24,12,24,12"/>
</g>
</svg>
