<?xml version="1.0" encoding="utf-8"?>
<!-- Generator: Adobe Illustrator 19.2.0, SVG Export Plug-In . SVG Version: 6.00 Build 0)  -->
<svg version="1.1" id="Layer_1" xmlns="http://www.w3.org/2000/svg" xmlns:xlink="http://www.w3.org/1999/xlink" x="0px" y="0px"
	 viewBox="0 0 48 48" style="enable-background:new 0 0 48 48;" xml:space="preserve">
<style type="text/css">
	.st0{fill:none;stroke:#000000;stroke-width:2;stroke-miterlimit:10;}
</style>
<title>Untitled-14</title>
<g id="Hair_Dryer">
	<path class="st0" d="M44,19l-28,4c-6,0.6-11.4-3.9-12-10c0-0.3,0-0.7,0-1l0,0C4,5.9,8.9,1,15,1c0.3,0,0.7,0,1,0l28,4V19z"/>
	<path class="st0" d="M21.9,22.3l4.9,18.4c0.7,2.7-0.9,5.4-3.5,6.1l0,0c-2.7,0.7-5.4-0.9-6.1-3.5l-5.5-20.8"/>
	<circle class="st0" cx="15" cy="11.5" r="4"/>
	<line class="st0" x1="26.7" y1="25.4" x2="28.3" y2="31.2"/>
</g>
</svg>
