<?xml version="1.0" encoding="utf-8"?>
<!-- Generator: Adobe Illustrator 19.2.0, SVG Export Plug-In . SVG Version: 6.00 Build 0)  -->
<svg version="1.1" id="Layer_1" xmlns="http://www.w3.org/2000/svg" xmlns:xlink="http://www.w3.org/1999/xlink" x="0px" y="0px"
	 viewBox="0 0 48 48" style="enable-background:new 0 0 48 48;" xml:space="preserve">
<style type="text/css">
	.st0{fill:none;stroke:#000000;stroke-width:2;stroke-miterlimit:10;}
</style>
<title>04. Gesture</title>
<g id="Hand_-_Alt">
	<line class="st0" x1="27" y1="24" x2="40" y2="24"/>
	<line class="st0" x1="28" y1="30" x2="40" y2="30"/>
	<line class="st0" x1="25" y1="36" x2="36" y2="36"/>
	<path class="st0" d="M39,39.1c0-1.7-1.3-3-2.9-3.1c0,0-0.1,0-0.1,0h3.9c1.7,0,3-1.3,3.1-2.9c0-1.7-1.3-3-2.9-3.1c0,0-0.1,0-0.1,0
		h3.9c1.7,0,3-1.3,3.1-2.9c0-1.7-1.3-3-2.9-3.1c0,0-0.1,0-0.1,0h-4c1.7,0,3-1.3,3-3c0,0,0-0.1,0-0.1c-0.1-1.6-1.5-2.9-3.1-2.9H24.5
		l-1.2-0.3c-1.1-0.3-1.7-1.4-1.4-2.5c0.1-0.5,0.4-0.9,0.8-1.1l1-0.6c2.9-1.4,4.1-4.8,2.7-7.7C26.3,5.5,26.2,5.3,26,5l-16,8.4l0,0
		C5,16.1,1,20.9,1,27l0,0c0,8.3,6.7,15,14.9,15h20C37.6,42,38.9,40.7,39,39.1z"/>
</g>
</svg>
