<?xml version="1.0" encoding="utf-8"?>
<!-- Generator: Adobe Illustrator 19.2.0, SVG Export Plug-In . SVG Version: 6.00 Build 0)  -->
<svg version="1.1" id="Layer_1" xmlns="http://www.w3.org/2000/svg" xmlns:xlink="http://www.w3.org/1999/xlink" x="0px" y="0px"
	 viewBox="0 0 48 48" style="enable-background:new 0 0 48 48;" xml:space="preserve">
<style type="text/css">
	.st0{fill:none;stroke:#000000;stroke-width:2;stroke-miterlimit:10;}
</style>
<title>04. Gesture</title>
<g id="Hand">
	<line class="st0" x1="24" y1="21" x2="24" y2="8"/>
	<line class="st0" x1="30" y1="20" x2="30" y2="8"/>
	<line class="st0" x1="36" y1="23" x2="36" y2="12"/>
	<path class="st0" d="M39.1,9c-1.7,0-3,1.3-3.1,2.9c0,0,0,0.1,0,0.1V8.1c0-1.7-1.3-3-2.9-3.1c-1.7,0-3,1.3-3.1,2.9c0,0,0,0.1,0,0.1
		V4.1c0-1.7-1.3-3-2.9-3.1c-1.7,0-3,1.3-3.1,2.9c0,0,0,0.1,0,0.1v4c0-1.7-1.3-3-3-3c0,0-0.1,0-0.1,0C19.3,5.1,18,6.5,18,8.1v15.4
		l-0.3,1.2c-0.3,1.1-1.4,1.7-2.5,1.4c-0.5-0.1-0.9-0.4-1.1-0.8l-0.6-1c-1.4-2.9-4.8-4.1-7.7-2.7C5.5,21.7,5.3,21.8,5,22l8.4,16l0,0
		c2.7,5,7.5,9,13.6,9l0,0c8.3,0,15-6.7,15-14.9v-20C42,10.4,40.7,9.1,39.1,9z"/>
</g>
</svg>
