<?xml version="1.0" encoding="utf-8"?>
<!-- Generator: Adobe Illustrator 19.2.0, SVG Export Plug-In . SVG Version: 6.00 Build 0)  -->
<svg version="1.1" id="Layer_1" xmlns="http://www.w3.org/2000/svg" xmlns:xlink="http://www.w3.org/1999/xlink" x="0px" y="0px"
	 viewBox="0 0 48 48" style="enable-background:new 0 0 48 48;" xml:space="preserve">
<style type="text/css">
	.st0{fill:none;stroke:#000000;stroke-width:2;stroke-miterlimit:10;}
</style>
<title>Untitled-12</title>
<g id="Headphone">
	<path class="st0" d="M16.3,46.9L16.3,46.9c-2.2,0.5-4.3-0.9-4.8-3c0,0,0,0,0-0.1L8.6,29.9c-0.5-2.2,0.9-4.3,3.1-4.8l0,0
		c2.2-0.5,4.3,0.9,4.8,3c0,0,0,0,0,0.1l2.9,13.9C19.9,44.3,18.5,46.4,16.3,46.9z"/>
	<path class="st0" d="M31.7,46.9L31.7,46.9c-2.2-0.5-3.6-2.6-3.1-4.8l2.9-13.9c0.4-2.2,2.5-3.6,4.7-3.1c0,0,0,0,0.1,0l0,0
		c2.2,0.5,3.6,2.6,3.1,4.8l-2.9,13.9C36,46,33.9,47.4,31.7,46.9C31.7,46.9,31.7,46.9,31.7,46.9z"/>
	<path class="st0" d="M6.1,39l-4-16l0,0C1,10.8,11.9,1,24,1l0,0c12.1,0,22.9,9.9,21.9,22l0,0l-4,16"/>
</g>
</svg>
