<?xml version="1.0" encoding="utf-8"?>
<!-- Generator: Adobe Illustrator 19.2.0, SVG Export Plug-In . SVG Version: 6.00 Build 0)  -->
<svg version="1.1" id="Layer_1" xmlns="http://www.w3.org/2000/svg" xmlns:xlink="http://www.w3.org/1999/xlink" x="0px" y="0px"
	 viewBox="0 0 48 48" style="enable-background:new 0 0 48 48;" xml:space="preserve">
<style type="text/css">
	.st0{fill:none;stroke:#000000;stroke-width:2;stroke-miterlimit:10;}
</style>
<title>Untitled-22</title>
<g id="Kettle_-_Alt">
	<path class="st0" d="M35,45H9c-3.3,0-6-2.7-6-6v-7c0-10.5,8.5-19,19-19l0,0c10.5,0,19,8.5,19,19v7C41,42.3,38.3,45,35,45z"/>
	<path class="st0" d="M36.1,19.3l3.5-3.5c1.6-1.6,4.3-1.6,5.9,0c0,0,0,0,0,0l1.5,1.5l-7.4,7.4"/>
	<path class="st0" d="M4.9,23.8l-3.6-8.5C-0.4,8.5,5.2,3,11.6,3H30"/>
	<line class="st0" x1="3.5" y1="37" x2="41.5" y2="37"/>
</g>
</svg>
