<?xml version="1.0" encoding="utf-8"?>
<!-- Generator: Adobe Illustrator 19.2.0, SVG Export Plug-In . SVG Version: 6.00 Build 0)  -->
<svg version="1.1" id="Layer_1" xmlns="http://www.w3.org/2000/svg" xmlns:xlink="http://www.w3.org/1999/xlink" x="0px" y="0px"
	 viewBox="0 0 48 48" style="enable-background:new 0 0 48 48;" xml:space="preserve">
<style type="text/css">
	.st0{fill:none;stroke:#000000;stroke-width:2;stroke-miterlimit:10;}
</style>
<title>Untitled-22</title>
<g id="Kettle">
	<path class="st0" d="M34.7,15H38c3.3,0,6,2.7,6,6l0,0c0,3.3-2.7,6-6,6h-1.5"/>
	<path class="st0" d="M39.5,47h-30l4.7-31.1C14.9,10.8,19.3,7,24.5,7l0,0c5.2,0,9.6,3.8,10.3,8.9L39.5,47z"/>
	<path class="st0" d="M21,7.6V4.5C21,2.6,22.6,1,24.5,1l0,0C26.4,1,28,2.6,28,4.5v3.1"/>
	<polyline class="st0" points="12.8,25.4 4,15 14.3,15 	"/>
</g>
</svg>
