<?xml version="1.0" encoding="utf-8"?>
<!-- Generator: Adobe Illustrator 19.2.0, SVG Export Plug-In . SVG Version: 6.00 Build 0)  -->
<svg version="1.1" id="Layer_1" xmlns="http://www.w3.org/2000/svg" xmlns:xlink="http://www.w3.org/1999/xlink" x="0px" y="0px"
	 viewBox="0 0 48 48" style="enable-background:new 0 0 48 48;" xml:space="preserve">
<style type="text/css">
	.st0{fill:none;stroke:#000000;stroke-width:2;stroke-miterlimit:10;}
</style>
<title>Untitled-17</title>
<g id="Keyboard">
	<path class="st0" d="M1,9h46l0,0v22c0,4.4-3.6,8-8,8H9c-4.4,0-8-3.6-8-8V9L1,9z"/>
	<rect x="6" y="28" width="4" height="4"/>
	<rect x="38" y="28" width="4" height="4"/>
	<rect x="6" y="14" width="4" height="4"/>
	<rect x="14" y="14" width="4" height="4"/>
	<rect x="22" y="14" width="4" height="4"/>
	<rect x="10" y="21" width="4" height="4"/>
	<rect x="18" y="21" width="4" height="4"/>
	<rect x="26" y="21" width="4" height="4"/>
	<rect x="34" y="21" width="4" height="4"/>
	<rect x="38" y="14" width="4" height="4"/>
	<rect x="30" y="14" width="4" height="4"/>
	<rect x="14" y="28" width="20" height="4"/>
</g>
</svg>
