<svg id="Layer_1" data-name="Layer 1" xmlns="http://www.w3.org/2000/svg" viewBox="0 0 48 48"><defs><style>.cls-1{fill:none;stroke:#000;stroke-miterlimit:10;stroke-width:2.02px;}</style></defs><title>1. General</title><g id="Link"><path class="cls-1" d="M19.84,26.88a9.67,9.67,0,0,1,.81-12.55L31,3.79a9.25,9.25,0,0,1,13.25,0h0a9.66,9.66,0,0,1,0,13.49l-6.92,7.49"/><path class="cls-1" d="M20.66,27.82a9.57,9.57,0,0,1-.81-0.94"/><path class="cls-1" d="M27,20.55h0A9.66,9.66,0,0,1,27,34L17,44.21a9.25,9.25,0,0,1-13.25,0h0a9.66,9.66,0,0,1,0-13.49l6.66-7"/></g></svg>