<svg id="Layer_1" data-name="Layer 1" xmlns="http://www.w3.org/2000/svg" viewBox="0 0 48 48"><defs><style>.cls-1{fill:none;stroke:#000;stroke-miterlimit:10;stroke-width:2px;}</style></defs><title>1. General</title><g id="Lock"><path class="cls-1" d="M33,47H15a8,8,0,0,1-8-8V19H41V39A8,8,0,0,1,33,47Z"/><path class="cls-1" d="M14,19V11A10,10,0,0,1,24,1h0A10,10,0,0,1,34,11v8"/><path d="M24,38h0a1.34,1.34,0,0,1-1.31-1l-1.61-5.38A3,3,0,0,1,24,28h0a3,3,0,0,1,2.92,3.59L25.31,37A1.34,1.34,0,0,1,24,38Z"/></g></svg>