<?xml version="1.0" encoding="utf-8"?>
<!-- Generator: Adobe Illustrator 19.2.0, SVG Export Plug-In . SVG Version: 6.00 Build 0)  -->
<svg version="1.1" id="Layer_1" xmlns="http://www.w3.org/2000/svg" xmlns:xlink="http://www.w3.org/1999/xlink" x="0px" y="0px"
	 viewBox="0 0 48 48" style="enable-background:new 0 0 48 48;" xml:space="preserve">
<style type="text/css">
	.st0{fill:none;stroke:#000000;stroke-width:2;stroke-miterlimit:10;}
</style>
<title>Untitled-17</title>
<g id="Lock_Rotation">
	<g id="Reload">
		<path class="st0" d="M47,16C42,8.7,36.7,1,24,1C11.3,1,1,11.3,1,24s10.3,23,23,23s23-10.3,23-23"/>
		<polyline class="st0" points="47,4 47,16 35,16 		"/>
	</g>
	<g id="Lock">
		<path class="st0" d="M21,33h6c2.2,0,4-1.8,4-4v-8H17v8C17,31.2,18.8,33,21,33z"/>
		<path class="st0" d="M28,21v-2c0-2.2-1.8-4-4-4l0,0c-2.2,0-4,1.8-4,4v2"/>
	</g>
</g>
</svg>
