<?xml version="1.0" encoding="utf-8"?>
<!-- Generator: Adobe Illustrator 19.2.0, SVG Export Plug-In . SVG Version: 6.00 Build 0)  -->
<svg version="1.1" id="Layer_1" xmlns="http://www.w3.org/2000/svg" xmlns:xlink="http://www.w3.org/1999/xlink" x="0px" y="0px"
	 viewBox="0 0 48 48" style="enable-background:new 0 0 48 48;" xml:space="preserve">
<style type="text/css">
	.st0{fill:none;stroke:#000000;stroke-width:2;stroke-miterlimit:10;}
</style>
<title>3. Communication</title>
<g id="Man">
	<path class="st0" d="M7,21v-4.5C7,8.8,12.8,2.4,20.4,1.6L26,1v3l0,0c8.3,0,15,6.7,15,15v2"/>
	<circle cx="17.5" cy="24.5" r="2.5"/>
	<circle cx="30.5" cy="24.5" r="2.5"/>
	<path class="st0" d="M30,35l-0.2,0.4C28.7,37.6,26.5,39,24,39l0,0c-2.5,0-4.7-1.4-5.8-3.6L18,35"/>
	<path class="st0" d="M8,21l4-3l2-5c3.2-1.4,6.6-2,10-2c3.4,0,6.8,0.6,10,2l2,5l4,3"/>
	<path class="st0" d="M9,27v-3.5C9,22.1,7.9,21,6.5,21l0,0C5.1,21,4,22.1,4,23.5V26c0,2.8,2.2,5,5,5l0,0c0,3.8,1.6,7.5,4.5,10
		l3.7,3.2C19,46,21.4,47,24,47l0,0c2.6,0,5-1,6.8-2.8l3.7-3.2c2.9-2.5,4.5-6.2,4.5-10l0,0c2.8,0,5-2.2,5-5v-2.5
		c0-1.4-1.1-2.5-2.5-2.5l0,0c-1.4,0-2.5,1.1-2.5,2.5V27"/>
</g>
</svg>
