<?xml version="1.0" encoding="utf-8"?>
<!-- Generator: Adobe Illustrator 19.2.0, SVG Export Plug-In . SVG Version: 6.00 Build 0)  -->
<svg version="1.1" id="Layer_1" xmlns="http://www.w3.org/2000/svg" xmlns:xlink="http://www.w3.org/1999/xlink" x="0px" y="0px"
	 viewBox="0 0 48 48" style="enable-background:new 0 0 48 48;" xml:space="preserve">
<style type="text/css">
	.st0{fill:none;stroke:#000000;stroke-width:2;stroke-miterlimit:10;}
</style>
<title>Untitled-25</title>
<g id="Microscope">
	<path class="st0" d="M18.1,22.5l-2.4-1.4c-1.8-1-2.5-3.3-1.7-5.1l6.8-15L33,8l-9.6,13.4C22.2,23.1,19.9,23.5,18.1,22.5z"/>
	<path class="st0" d="M17,43h18c2.2,0,4,1.8,4,4l0,0l0,0H13l0,0l0,0C13,44.8,14.8,43,17,43z"/>
	<path class="st0" d="M28.1,14.9l3.7,2.1c4,2.3,5.4,7.5,3.1,11.5L34.6,29c-1.1,1.9-2.8,3.4-4.8,4.2c-2.3,0.9-3.8,3.1-3.8,5.6V43"/>
	<line class="st0" x1="10" y1="24" x2="17" y2="28"/>
</g>
</svg>
