<?xml version="1.0" encoding="utf-8"?>
<!-- Generator: Adobe Illustrator 19.2.0, SVG Export Plug-In . SVG Version: 6.00 Build 0)  -->
<svg version="1.1" id="Layer_1" xmlns="http://www.w3.org/2000/svg" xmlns:xlink="http://www.w3.org/1999/xlink" x="0px" y="0px"
	 viewBox="0 0 52 48" style="enable-background:new 0 0 52 48;" xml:space="preserve">
<style type="text/css">
	.st0{fill:none;stroke:#000000;stroke-width:2;stroke-miterlimit:10;}
</style>
<title>Untitled-13</title>
<g id="Mortar_Board">
	<polygon class="st0" points="26,24 2,16 26,8 50,16 	"/>
	<path class="st0" d="M39.1,19.6L37,30c0,0-3,4-11,4s-11-4-11-4l-2-10.3"/>
	<polyline class="st0" points="26,16 46,22 46,30 	"/>
	<path class="st0" d="M48,40h-4l-0.7-7c-0.2-1.5,0.9-2.8,2.4-3c0.1,0,0.2,0,0.3,0l0,0c1.5,0,2.7,1.2,2.7,2.7c0,0.1,0,0.2,0,0.3
		L48,40z"/>
</g>
</svg>
