<?xml version="1.0" encoding="utf-8"?>
<!-- Generator: Adobe Illustrator 19.2.0, SVG Export Plug-In . SVG Version: 6.00 Build 0)  -->
<svg version="1.1" id="Layer_1" xmlns="http://www.w3.org/2000/svg" xmlns:xlink="http://www.w3.org/1999/xlink" x="0px" y="0px"
	 viewBox="0 0 48 48" style="enable-background:new 0 0 48 48;" xml:space="preserve">
<style type="text/css">
	.st0{fill:none;stroke:#000000;stroke-width:2;stroke-miterlimit:10;}
</style>
<title>Untitled-12</title>
<g id="Music_Note_-_Alt">
	<path class="st0" d="M44,35.4c0,2.5-1.8,4.6-4.2,4.9l-4.1,0.6c-2.7,0.4-5.2-1.6-5.6-4.3c0-0.2,0-0.4,0-0.6l0,0
		c0-2.5,1.8-4.6,4.2-4.9l9.8-1.4V35.4L44,35.4z"/>
	<path class="st0" d="M44,29.5V1L18,7.1v34.3c0,2.5-1.8,4.6-4.2,4.9L9.6,47c-2.7,0.4-5.2-1.6-5.6-4.3c0-0.2,0-0.4,0-0.6l0,0
		c0-2.5,1.8-4.6,4.2-4.9l9.8-1.5"/>
	<line class="st0" x1="18" y1="17.1" x2="44" y2="11.1"/>
</g>
</svg>
