<?xml version="1.0" encoding="utf-8"?>
<!-- Generator: Adobe Illustrator 19.2.0, SVG Export Plug-In . SVG Version: 6.00 Build 0)  -->
<svg version="1.1" id="Layer_1" xmlns="http://www.w3.org/2000/svg" xmlns:xlink="http://www.w3.org/1999/xlink" x="0px" y="0px"
	 viewBox="0 0 48 48" style="enable-background:new 0 0 48 48;" xml:space="preserve">
<style type="text/css">
	.st0{fill:none;stroke:#000000;stroke-width:2;stroke-miterlimit:10;}
</style>
<title>Untitled-16</title>
<g id="Numbers_1_">
	<line class="st0" x1="16" y1="9" x2="42" y2="9"/>
	<line class="st0" x1="16" y1="24" x2="42" y2="24"/>
	<line class="st0" x1="16" y1="39" x2="42" y2="39"/>
	<path d="M6,5.5c1.9,0,2.3-0.4,2.3-1.5H10v9H8.2V6.7H6V5.5z"/>
	<path d="M12,22.7c0,1.6-1.9,2.5-2.6,2.9c-1.4,0.9-1.6,1.3-1.6,2.1h4.1V29H6c0-2.8,1.1-3.6,2.6-4.5c0.8-0.5,1.9-0.9,1.9-2
		c0-0.9-0.6-1.2-1.4-1.2c-0.8,0-1.5,0.4-1.5,1.5H6C6,21,7.5,20,9.1,20S12,20.9,12,22.7z"/>
	<path d="M8.4,38.7H9c1,0,1.3-0.5,1.3-1.3c0-0.7-0.5-1.1-1.2-1.1c-1,0-1.4,0.6-1.4,1.4H6.3C6.3,36.1,7.4,35,9,35
		c1.5,0,2.8,0.9,2.8,2.4c0,1-0.5,1.6-1.2,1.9c0.8,0.3,1.4,0.9,1.4,2.1C12,43,10.7,44,9,44c-1.6,0-3-1.1-3-3.1h1.4
		c0,1.1,0.7,1.8,1.7,1.8c0.9,0,1.5-0.6,1.5-1.4c0-0.8-0.4-1.4-1.6-1.4H8.4V38.7z"/>
</g>
</svg>
