<?xml version="1.0" encoding="utf-8"?>
<!-- Generator: Adobe Illustrator 19.2.0, SVG Export Plug-In . SVG Version: 6.00 Build 0)  -->
<svg version="1.1" id="Layer_1" xmlns="http://www.w3.org/2000/svg" xmlns:xlink="http://www.w3.org/1999/xlink" x="0px" y="0px"
	 viewBox="0 0 48 48" style="enable-background:new 0 0 48 48;" xml:space="preserve">
<style type="text/css">
	.st0{fill:none;stroke:#000000;stroke-width:2;stroke-miterlimit:10;}
</style>
<title>Untitled-16</title>
<g id="Open_Quote">
	<path class="st0" d="M5,29.4C4.5,22.8,9.5,13.5,20.5,9l2.5,4.1c-4.5,2.4-7.9,6.3-9.7,11c6.5,0.5,8.4,4.3,8.4,7.4
		c0,4.2-3.5,7.5-7.6,7.5c0,0,0,0,0,0C10.1,39,5.5,36,5,29.4z"/>
	<path class="st0" d="M25,29.4C24.5,22.8,29.5,13.5,40.5,9l2.5,4.1c-4.5,2.4-7.9,6.3-9.7,11c6.5,0.5,8.4,4.3,8.4,7.4
		c0,4.2-3.5,7.5-7.6,7.5c0,0,0,0,0,0C30.1,39,25.5,36,25,29.4z"/>
</g>
</svg>
