<?xml version="1.0" encoding="utf-8"?>
<!-- Generator: Adobe Illustrator 19.2.0, SVG Export Plug-In . SVG Version: 6.00 Build 0)  -->
<svg version="1.1" id="Layer_1" xmlns="http://www.w3.org/2000/svg" xmlns:xlink="http://www.w3.org/1999/xlink" x="0px" y="0px"
	 viewBox="0 0 48 48" style="enable-background:new 0 0 48 48;" xml:space="preserve">
<style type="text/css">
	.st0{fill:none;stroke:#000000;stroke-width:1.97;stroke-miterlimit:10;}
	.st1{fill:none;stroke:#000000;stroke-width:2;stroke-miterlimit:10;}
</style>
<title>2. Design - Office</title>
<g id="Paint_Bucket">
	<path class="st0" d="M37.5,45.5L37.5,45.5c-1.9-1.9-1.9-5.1,0-7L41,35l3.5,3.5c1.9,1.9,1.9,5.1,0,7l0,0
		C42.6,47.5,39.4,47.5,37.5,45.5C37.5,45.5,37.5,45.5,37.5,45.5z"/>
	<circle cx="22" cy="25" r="3"/>
	<line class="st0" x1="22" y1="25" x2="22" y2="0"/>
	<path class="st1" d="M36.9,28.7L22.7,42.9c-3.1,3.1-8.2,3.1-11.3,0l-7.1-7.1c-3.1-3.1-3.1-8.2,0-11.3l14.1-14.1"/>
	<line class="st1" x1="15.7" y1="7.5" x2="39.7" y2="31.5"/>
</g>
</svg>
