<?xml version="1.0" encoding="utf-8"?>
<!-- Generator: Adobe Illustrator 19.2.0, SVG Export Plug-In . SVG Version: 6.00 Build 0)  -->
<svg version="1.1" id="Layer_1" xmlns="http://www.w3.org/2000/svg" xmlns:xlink="http://www.w3.org/1999/xlink" x="0px" y="0px"
	 viewBox="0 0 48 48" style="enable-background:new 0 0 48 48;" xml:space="preserve">
<style type="text/css">
	.st0{fill:none;stroke:#000000;stroke-width:2;stroke-miterlimit:10;}
</style>
<title>2. Design - Office</title>
<g id="Paint_Roller">
	<polygon class="st0" points="35,15 5,15 5,15 5,1 35,1 	"/>
	<path class="st0" d="M35,7h4c2.2,0,4,1.8,4,4v4.9c0,1.8-1.2,3.4-3,3.9L24,24.2c-1.7,0.5-2.9,2-3,3.8v3"/>
	<path class="st0" d="M17,31h8l0,0v12c0,2.2-1.8,4-4,4l0,0c-2.2,0-4-1.8-4-4V31L17,31z"/>
</g>
</svg>
