<?xml version="1.0" encoding="utf-8"?>
<!-- Generator: Adobe Illustrator 19.2.0, SVG Export Plug-In . SVG Version: 6.00 Build 0)  -->
<svg version="1.1" id="Layer_1" xmlns="http://www.w3.org/2000/svg" xmlns:xlink="http://www.w3.org/1999/xlink" x="0px" y="0px"
	 viewBox="0 0 48 48" style="enable-background:new 0 0 48 48;" xml:space="preserve">
<style type="text/css">
	.st0{fill:none;stroke:#000000;stroke-width:2;stroke-miterlimit:10;}
</style>
<title>2. Design - Office</title>
<g id="Paint_Brush">
	<path class="st0" d="M9,1v18.4c0,2.2,1.2,4.2,3.1,5.3l3.2,1.7c2.9,1.6,4.5,4.7,4.1,7.9L18.7,41c-0.3,2.9,1.8,5.6,4.7,6
		c0.2,0,0.4,0,0.6,0l0,0c3,0,5.4-2.4,5.4-5.4c0-0.2,0-0.4,0-0.6l-0.7-6.7c-0.4-3.2,1.3-6.4,4.1-7.9l3.2-1.7c1.9-1,3.1-3,3.1-5.2V1H9
		z"/>
	<line class="st0" x1="9" y1="17" x2="39" y2="17"/>
</g>
</svg>
