<?xml version="1.0" encoding="utf-8"?>
<!-- Generator: Adobe Illustrator 19.2.0, SVG Export Plug-In . SVG Version: 6.00 Build 0)  -->
<svg version="1.1" id="Layer_1" xmlns="http://www.w3.org/2000/svg" xmlns:xlink="http://www.w3.org/1999/xlink" x="0px" y="0px"
	 viewBox="0 0 48 48" style="enable-background:new 0 0 48 48;" xml:space="preserve">
<style type="text/css">
	.st0{fill:none;stroke:#000000;stroke-width:2;stroke-miterlimit:10;}
</style>
<title>Untitled-23</title>
<g id="Partly_Cloudy">
	<line class="st0" x1="20" y1="10" x2="20" y2="4"/>
	<line class="st0" x1="0" y1="24" x2="6" y2="24"/>
	<line class="st0" x1="29.5" y1="14.5" x2="33.8" y2="10.2"/>
	<line class="st0" x1="5.5" y1="38.3" x2="9.8" y2="34"/>
	<line class="st0" x1="5.7" y1="10.2" x2="10" y2="14.5"/>
	<path class="st0" d="M27.9,23c-0.6-4.4-4.6-7.5-8.9-6.9c-4.4,0.6-7.5,4.6-6.9,8.9c0.5,4,3.9,7,7.9,7h1.2"/>
	<path class="st0" d="M40.5,29.9L40.5,29.9c-0.4-4.7-4.5-8.1-9.2-7.7c-4.4,0.4-7.7,4-7.8,8.4v1.3h-1c-2.9,0-5.4,2.3-5.5,5.3l0,0V43
		h23.5c3.6,0,6.6-2.9,6.6-6.6C47,32.8,44.1,29.9,40.5,29.9z"/>
</g>
</svg>
