<?xml version="1.0" encoding="utf-8"?>
<!-- Generator: Adobe Illustrator 19.2.0, SVG Export Plug-In . SVG Version: 6.00 Build 0)  -->
<svg version="1.1" id="Layer_1" xmlns="http://www.w3.org/2000/svg" xmlns:xlink="http://www.w3.org/1999/xlink" x="0px" y="0px"
	 viewBox="0 0 48 48" style="enable-background:new 0 0 48 48;" xml:space="preserve">
<style type="text/css">
	.st0{fill:none;stroke:#000000;stroke-width:2;stroke-miterlimit:10;}
</style>
<title>Untitled-16</title>
<g id="Patse">
	<path class="st0" d="M9,17h24l0,0v24c0,3.3-2.7,6-6,6H3l0,0V23C3,19.7,5.7,17,9,17z"/>
	<g id="Clipboard">
		<polyline class="st0" points="17,17 17,7 45,7 45,39 33,39 		"/>
		<path class="st0" d="M28,7V4c0-1.7,1.3-3,3-3l0,0c1.7,0,3,1.3,3,3v3"/>
		<path class="st0" d="M39,7v4c0,1.1-0.9,2-2,2H25c-1.1,0-2-0.9-2-2V7"/>
	</g>
</g>
</svg>
