<?xml version="1.0" encoding="utf-8"?>
<!-- Generator: Adobe Illustrator 19.2.0, SVG Export Plug-In . SVG Version: 6.00 Build 0)  -->
<svg version="1.1" id="Layer_1" xmlns="http://www.w3.org/2000/svg" xmlns:xlink="http://www.w3.org/1999/xlink" x="0px" y="0px"
	 viewBox="0 0 48 48" style="enable-background:new 0 0 48 48;" xml:space="preserve">
<style type="text/css">
	.st0{fill:none;stroke:#000000;stroke-width:2;stroke-miterlimit:10;}
</style>
<title>Untitled-17</title>
<g id="Phone_Shake">
	<g id="Smart_Phone">
		<path class="st0" d="M11.8,4l16.8-3c2.1-0.4,4,1,4.4,3.1l6.2,35.4c0.4,2.1-1,4-3.1,4.4l-16.8,3c-2.1,0.4-4-1-4.4-3.1L8.7,8.4
			C8.3,6.4,9.7,4.4,11.8,4z"/>
		<ellipse transform="matrix(0.9848 -0.1736 0.1736 0.9848 -6.8348 5.332)" cx="27.1" cy="41.7" rx="1.9" ry="1.9"/>
		<line class="st0" x1="14.3" y1="40.1" x2="38.5" y2="35.9"/>
	</g>
	<line class="st0" x1="39.8" y1="9.5" x2="43.2" y2="29.2"/>
	<line class="st0" x1="44.6" y1="11" x2="47" y2="24.8"/>
	<line class="st0" x1="4.8" y1="17" x2="8.2" y2="36.7"/>
	<line class="st0" x1="1" y1="21.5" x2="3.4" y2="35.3"/>
</g>
</svg>
