<?xml version="1.0" encoding="utf-8"?>
<!-- Generator: Adobe Illustrator 19.2.0, SVG Export Plug-In . SVG Version: 6.00 Build 0)  -->
<svg version="1.1" id="Layer_1" xmlns="http://www.w3.org/2000/svg" xmlns:xlink="http://www.w3.org/1999/xlink" x="0px" y="0px"
	 viewBox="0 0 48 48" style="enable-background:new 0 0 48 48;" xml:space="preserve">
<style type="text/css">
	.st0{fill:none;stroke:#000000;stroke-width:2;stroke-miterlimit:10;}
</style>
<title>Untitled-12</title>
<g id="Podcast">
	<circle class="st0" cx="24" cy="22" r="4"/>
	<path class="st0" d="M12.4,43.9c-11-6.4-14.7-20.5-8.2-31.5S24.7-2.3,35.6,4.2s14.7,20.5,8.2,31.5c-2,3.5-5,6.4-8.5,8.4"/>
	<path class="st0" d="M16.9,36.1c-6.6-4-8.8-12.5-4.9-19.2s12.5-8.8,19.2-4.9S40,24.6,36,31.2c-1.2,2.1-3,3.8-5.1,5"/>
	<path class="st0" d="M26.8,47h-5.7l-1.6-13c-0.3-2.4,1.4-4.6,3.8-5c0.2,0,0.4,0,0.6,0l0,0c2.4,0,4.4,2,4.4,4.4c0,0.2,0,0.4,0,0.6
		L26.8,47z"/>
</g>
</svg>
