<?xml version="1.0" encoding="utf-8"?>
<!-- Generator: Adobe Illustrator 19.2.0, SVG Export Plug-In . SVG Version: 6.00 Build 0)  -->
<svg version="1.1" id="Layer_1" xmlns="http://www.w3.org/2000/svg" xmlns:xlink="http://www.w3.org/1999/xlink" x="0px" y="0px"
	 viewBox="0 0 48 48" style="enable-background:new 0 0 48 48;" xml:space="preserve">
<style type="text/css">
	.st0{fill:none;stroke:#000000;stroke-width:2;stroke-miterlimit:10;}
</style>
<title>Untitled-17</title>
<g id="Recycling">
	<path class="st0" d="M38.8,21.2L46.2,34c1.7,2.9,0.7,6.5-2.2,8.2c-0.9,0.5-2,0.8-3,0.8H26"/>
	<polyline class="st0" points="32.5,37 26,43 32.5,49 	"/>
	<polyline class="st0" points="27.8,13.9 36,16.1 38.2,7.9 	"/>
	<polyline class="st0" points="11.2,29.5 9.1,21.4 1,23.5 	"/>
	<path class="st0" d="M11.9,16.4l7.3-12.6c1.5-2.6,4.9-3.6,7.6-2c0.8,0.5,1.5,1.2,2,2L36,16.1"/>
	<path class="st0" d="M20,43H7c-3.4-0.1-6-2.9-5.9-6.3c0-0.9,0.3-1.9,0.7-2.7L9,21.4"/>
</g>
</svg>
