<svg id="Layer_1" data-name="Layer 1" xmlns="http://www.w3.org/2000/svg" viewBox="0 0 48 48"><defs><style>.cls-1{fill:none;stroke:#000;stroke-miterlimit:10;stroke-width:2px;}</style></defs><title>1. General</title><g id="Settings"><circle class="cls-1" cx="24" cy="24" r="7"/><path class="cls-1" d="M47,27.3V20.45l-4-.29a4.25,4.25,0,0,1-3.62-2.62l0-.05a4.26,4.26,0,0,1,.71-4.42l2.62-3L37.84,5.19l-3,2.62a4.26,4.26,0,0,1-4.42.71l-0.05,0a4.17,4.17,0,0,1-2.62-3.56L27.42,1H20.57L20.28,4.94a4.21,4.21,0,0,1-2.62,3.59h0a4.26,4.26,0,0,1-4.42-.71l-3-2.62L5.31,10l2.62,3a4.26,4.26,0,0,1,.71,4.42l0,0A4.25,4.25,0,0,1,5,20.16l-4,.29V27.3L5,27.6a4.25,4.25,0,0,1,3.62,2.62l0,0.05a4.26,4.26,0,0,1-.71,4.42l-2.62,3,4.84,4.84,3-2.62a4.26,4.26,0,0,1,4.42-.71l0.05,0a4.34,4.34,0,0,1,2.62,3.69L20.57,47h6.85l0.29-4.05a4.3,4.3,0,0,1,2.62-3.65l0.05,0a4.26,4.26,0,0,1,4.42.7l3,2.61,4.84-4.85-2.62-3a4.26,4.26,0,0,1-.71-4.42l0-.05A4.25,4.25,0,0,1,43,27.6Z"/></g></svg>