<?xml version="1.0" encoding="utf-8"?>
<!-- Generator: Adobe Illustrator 19.2.0, SVG Export Plug-In . SVG Version: 6.00 Build 0)  -->
<svg version="1.1" id="Layer_1" xmlns="http://www.w3.org/2000/svg" xmlns:xlink="http://www.w3.org/1999/xlink" x="0px" y="0px"
	 viewBox="0 0 48 48" style="enable-background:new 0 0 48 48;" xml:space="preserve">
<style type="text/css">
	.st0{fill:none;stroke:#000000;stroke-width:2;stroke-miterlimit:10;}
</style>
<title>Untitled-24</title>
<g id="Ship">
	<path class="st0" d="M15.9,38.7L6,24.5l18-9l18,9l-9.9,14.2c-3.1,4.5-9.3,5.6-13.8,2.5C17.4,40.6,16.5,39.7,15.9,38.7z"/>
	<path class="st0" d="M14,20.5V15c0-2.2,1.8-4,4-4h12c2.2,0,4,1.8,4,4v5.5"/>
	<path class="st0" d="M19,11v-1c0-2.8,2.2-5,5-5l0,0c2.8,0,5,2.2,5,5v1"/>
	<path class="st0" d="M31.1,40l1.8,1.8c1.6,1.6,4.1,1.6,5.7,0c0,0,0,0,0,0l1.7-1.8c1.4-1.4,3.6-1.4,4.9-0.1c0,0,0,0,0.1,0.1l1.7,1.8
		"/>
	<path class="st0" d="M16.9,40l-1.8,1.8c-1.6,1.6-4.1,1.6-5.7,0c0,0,0,0,0,0l-1.7-1.7c-1.4-1.4-3.6-1.4-4.9-0.1c0,0,0,0-0.1,0.1
		L1,41.8"/>
</g>
</svg>
