<svg id="Layer_1" data-name="Layer 1" xmlns="http://www.w3.org/2000/svg" viewBox="0 0 48 48"><defs><style>.cls-1{fill:none;stroke:#000;stroke-miterlimit:10;stroke-width:2px;}</style></defs><title>Untitled-20</title><g id="Shower"><path class="cls-1" d="M43,48V13A12,12,0,0,0,31,1h0A12,12,0,0,0,19,13h0"/><path class="cls-1" d="M30,21H8V18.34a4,4,0,0,1,3.28-3.94L19,13l7.72,1.4A4,4,0,0,1,30,18.34V21h0Z"/><circle cx="23" cy="26" r="2"/><circle cx="19" cy="32" r="2"/><circle cx="15" cy="26" r="2"/><circle cx="27" cy="32" r="2"/><circle cx="11" cy="32" r="2"/><circle cx="15" cy="38" r="2"/><circle cx="23" cy="38" r="2"/><circle cx="31" cy="38" r="2"/><circle cx="7" cy="38" r="2"/></g></svg>