<?xml version="1.0" encoding="utf-8"?>
<!-- Generator: Adobe Illustrator 19.2.0, SVG Export Plug-In . SVG Version: 6.00 Build 0)  -->
<svg version="1.1" id="Layer_1" xmlns="http://www.w3.org/2000/svg" xmlns:xlink="http://www.w3.org/1999/xlink" x="0px" y="0px"
	 viewBox="0 0 48 48" style="enable-background:new 0 0 48 48;" xml:space="preserve">
<style type="text/css">
	.st0{fill:none;stroke:#000000;stroke-width:2;stroke-miterlimit:10;}
</style>
<title>Untitled-23</title>
<g id="Shower">
	<circle cx="11" cy="35" r="2"/>
	<circle cx="7" cy="43" r="2"/>
	<circle cx="21" cy="35" r="2"/>
	<circle cx="17" cy="43" r="2"/>
	<circle cx="31" cy="35" r="2"/>
	<circle cx="27" cy="43" r="2"/>
	<path class="st0" d="M34.2,12.4L34.2,12.4C33.8,7.1,29.3,3,24,3c-5.5-0.1-9.9,4.3-10,9.8c0,0.1,0,0.1,0,0.2v1.5h-1.5
		C9,14.6,6.1,17.5,6,21l0,0v7h28.2c4.3,0.2,8-3.1,8.2-7.4s-3.1-8-7.4-8.2C34.7,12.4,34.4,12.4,34.2,12.4z"/>
</g>
</svg>
