<?xml version="1.0" encoding="utf-8"?>
<!-- Generator: Adobe Illustrator 19.2.0, SVG Export Plug-In . SVG Version: 6.00 Build 0)  -->
<svg version="1.1" id="Layer_1" xmlns="http://www.w3.org/2000/svg" xmlns:xlink="http://www.w3.org/1999/xlink" x="0px" y="0px"
	 viewBox="0 0 48 48" style="enable-background:new 0 0 48 48;" xml:space="preserve">
<style type="text/css">
	.st0{fill:none;stroke:#000000;stroke-width:2;stroke-miterlimit:10;}
</style>
<title>Untitled-20</title>
<g id="Sofa">
	<path class="st0" d="M35,30H13l-2.7-18.9c-0.6-4.4,2.4-8.4,6.8-9C17.5,2,17.8,2,18.2,2h11.6c4.4,0,8,3.6,8,8c0,0.4,0,0.8-0.1,1.1
		L35,30z"/>
	<path class="st0" d="M11.8,21.5v-0.2C11.3,18,8.3,15.8,5,16.2c-0.1,0-0.2,0-0.3,0.1L1,17l2.8,16.4c0.7,3.8,4,6.6,7.9,6.6h24.5
		c3.9,0,7.2-2.8,7.9-6.6L47,17l-3.6-0.7c-3.2-0.7-6.4,1.4-7.1,4.7c0,0.1,0,0.2-0.1,0.3v0.2"/>
	<line class="st0" x1="11.6" y1="40" x2="9.6" y2="46"/>
	<line class="st0" x1="36.2" y1="40" x2="38.2" y2="46"/>
</g>
</svg>
