<?xml version="1.0" encoding="utf-8"?>
<!-- Generator: Adobe Illustrator 19.2.0, SVG Export Plug-In . SVG Version: 6.00 Build 0)  -->
<svg version="1.1" id="Layer_1" xmlns="http://www.w3.org/2000/svg" xmlns:xlink="http://www.w3.org/1999/xlink" x="0px" y="0px"
	 viewBox="0 0 48 52" style="enable-background:new 0 0 48 52;" xml:space="preserve">
<style type="text/css">
	.st0{fill:none;stroke:#000000;stroke-width:2;stroke-miterlimit:10;}
</style>
<title>Untitled-24</title>
<g id="Space_Shuttle">
	<path class="st0" d="M37.1,29c-2.1-2.7-6.1-6.8-6.1-13v-2.8C31,7.5,27.1,2.1,24,2c-3.1,0.1-7,5.5-7,11.2V16c0,6.2-4.6,10.3-6.7,13
		C9,30.6,9,35,9,35h9.5l2,3h7l2-3H39C39,32.9,38.3,30.8,37.1,29z"/>
	<path class="st0" d="M24,50c0,0,3-3.8,3-5.7S25.4,42,24,42s-3,0.4-3,2.3S24,50,24,50z"/>
</g>
</svg>
