<?xml version="1.0" encoding="utf-8"?>
<!-- Generator: Adobe Illustrator 19.2.0, SVG Export Plug-In . SVG Version: 6.00 Build 0)  -->
<svg version="1.1" id="Layer_1" xmlns="http://www.w3.org/2000/svg" xmlns:xlink="http://www.w3.org/1999/xlink" x="0px" y="0px"
	 viewBox="0 0 48 48" style="enable-background:new 0 0 48 48;" xml:space="preserve">
<style type="text/css">
	.st0{fill:none;stroke:#000000;stroke-width:2;stroke-miterlimit:10;}
</style>
<title>2. Design - Office</title>
<g id="Stacks">
	<path class="st0" d="M5.4,18H35l0,0v19.6c0,2.4-2,4.4-4.4,4.4H1l0,0V22.4C1,20,3,18,5.4,18z"/>
	<path class="st0" d="M7,18v-2c0-2.2,1.8-4,4-4h30v20c0,2.2-1.8,4-4,4h-2"/>
	<path class="st0" d="M13,12v-2c0-2.2,1.8-4,4-4h30v20c0,2.2-1.8,4-4,4h-2"/>
</g>
</svg>
