<?xml version="1.0" encoding="utf-8"?>
<!-- Generator: Adobe Illustrator 19.2.0, SVG Export Plug-In . SVG Version: 6.00 Build 0)  -->
<svg version="1.1" id="Layer_1" xmlns="http://www.w3.org/2000/svg" xmlns:xlink="http://www.w3.org/1999/xlink" x="0px" y="0px"
	 viewBox="0 0 50 48" style="enable-background:new 0 0 50 48;" xml:space="preserve">
<style type="text/css">
	.st0{fill:none;stroke:#000000;stroke-width:2;stroke-miterlimit:10;}
</style>
<title>Financial</title>
<g id="Store">
	<path class="st0" d="M46,24v15c0,4.4-3.6,8-8,8H12c-4.4,0-8-3.6-8-8V24"/>
	<path class="st0" d="M45,1H5c0,0-4,17.1-4,18c0,3.3,2.7,6,6,6s6-2.7,6-6c0,3.3,2.7,6,6,6s6-2.7,6-6c0,3.3,2.7,6,6,6s6-2.7,6-6
		c0,3.3,2.7,6,6,6s6-2.7,6-6C49,18.1,45,1,45,1z"/>
	<rect x="21" y="35" class="st0" width="8" height="12"/>
</g>
</svg>
