<?xml version="1.0" encoding="utf-8"?>
<!-- Generator: Adobe Illustrator 19.2.0, SVG Export Plug-In . SVG Version: 6.00 Build 0)  -->
<svg version="1.1" id="Layer_1" xmlns="http://www.w3.org/2000/svg" xmlns:xlink="http://www.w3.org/1999/xlink" x="0px" y="0px"
	 viewBox="0 0 48 48" style="enable-background:new 0 0 48 48;" xml:space="preserve">
<style type="text/css">
	.st0{fill:none;stroke:#000000;stroke-width:2;stroke-miterlimit:10;}
</style>
<title>Untitled-12</title>
<g id="Streaming_Music">
	<path d="M29,18.2L22,17v11.6L18.6,29c-1.5,0.3-2.6,1.5-2.6,3l0,0c0,1.7,1.3,3,3,3c0.1,0,0.2,0,0.4,0l2-0.3c1.5-0.2,2.6-1.5,2.6-3
		V22l5,1V18.2L29,18.2z"/>
	<path class="st0" d="M37,20L37,20c-0.3-7.2-6.3-12.8-13.5-12.5S10.7,13.8,11,21v2H9.5C5,23,1.3,26.5,1,31l0,0v9h36
		c5.5,0,10-4.5,10-10S42.5,20,37,20z"/>
</g>
</svg>
