<?xml version="1.0" encoding="utf-8"?>
<!-- Generator: Adobe Illustrator 19.2.0, SVG Export Plug-In . SVG Version: 6.00 Build 0)  -->
<svg version="1.1" id="Layer_1" xmlns="http://www.w3.org/2000/svg" xmlns:xlink="http://www.w3.org/1999/xlink" x="0px" y="0px"
	 viewBox="0 0 48 48" style="enable-background:new 0 0 48 48;" xml:space="preserve">
<style type="text/css">
	.st0{fill:none;stroke:#000000;stroke-width:2;stroke-miterlimit:10;}
</style>
<title>Untitled-23</title>
<g id="Thunder">
	<polyline class="st0" points="19,28 17,36 21,36 20,45 30.1,33 26,33 27.4,28 	"/>
	<path class="st0" d="M34.2,12.4L34.2,12.4C33.8,7.1,29.3,3,24,3c-5.5-0.1-9.9,4.3-10,9.7c0,0.1,0,0.2,0,0.3v1.5h-1.5
		C9,14.6,6.1,17.5,6,21l0,0v7h28.2c4.3,0,7.8-3.5,7.8-7.8S38.5,12.4,34.2,12.4z"/>
</g>
</svg>
