<?xml version="1.0" encoding="utf-8"?>
<!-- Generator: Adobe Illustrator 19.2.0, SVG Export Plug-In . SVG Version: 6.00 Build 0)  -->
<svg version="1.1" id="Layer_1" xmlns="http://www.w3.org/2000/svg" xmlns:xlink="http://www.w3.org/1999/xlink" x="0px" y="0px"
	 viewBox="0 0 48 48" style="enable-background:new 0 0 48 48;" xml:space="preserve">
<style type="text/css">
	.st0{fill:none;stroke:#000000;stroke-width:2;stroke-miterlimit:10;}
</style>
<title>Untitled-24</title>
<g id="Train">
	<path class="st0" d="M36.5,43H11.6C7.9,43,5,40.1,5,36.4c0-0.3,0-0.6,0.1-0.9L9,7.9C9.6,3.9,13,1,16.9,1h14.1c4,0,7.4,2.9,7.9,6.9
		l4,27.7c0.5,3.6-2,6.9-5.5,7.4C37.1,43,36.8,43,36.5,43z"/>
	<path class="st0" d="M35,17H13l1.4-8.7c0.3-1.9,2-3.3,3.9-3.3h11.2c2,0,3.6,1.4,4,3.3L35,17z"/>
	<circle class="st0" cx="24" cy="31" r="4"/>
	<line class="st0" x1="15" y1="47" x2="33" y2="47"/>
</g>
</svg>
