<svg id="Layer_1" data-name="Layer 1" xmlns="http://www.w3.org/2000/svg" viewBox="0 0 48 48"><defs><style>.cls-1{fill:none;stroke:#000;stroke-miterlimit:10;stroke-width:2px;}</style></defs><title>1. General</title><g id="Link"><path class="cls-1" d="M24,12.61l7.23-7.24a8.08,8.08,0,0,1,11.43,0h0a8,8,0,0,1-.06,11.39L35.38,24"/><path class="cls-1" d="M24,35.3l-7.33,7.34a8,8,0,0,1-11.34,0h0a8,8,0,0,1,.06-11.3L12.71,24"/><line class="cls-1" x1="35.84" y1="35.84" x2="41.5" y2="41.5"/><line class="cls-1" x1="6.5" y1="6.34" x2="12.16" y2="12"/><line class="cls-1" x1="39.5" y1="30" x2="48" y2="30"/><line class="cls-1" x1="30" y1="40" x2="30" y2="48"/><line class="cls-1" x1="18" y1="8.5" x2="18"/><line class="cls-1" x1="8.5" y1="18" y2="18"/></g></svg>