<svg id="Layer_1" data-name="Layer 1" xmlns="http://www.w3.org/2000/svg" viewBox="0 0 48 48"><defs><style>.cls-1{fill:none;stroke:#000;stroke-miterlimit:10;stroke-width:2px;}</style></defs><title>1. General</title><g id="Unlock"><path class="cls-1" d="M29,47H11a8,8,0,0,1-8-8V19H37V39A8,8,0,0,1,29,47Z"/><path class="cls-1" d="M25,19V11A10,10,0,0,1,35,1h0A10,10,0,0,1,45,11v8"/><path d="M20,38h0a1.34,1.34,0,0,1-1.31-1l-1.61-5.38A3,3,0,0,1,20,28h0a3,3,0,0,1,2.92,3.59L21.31,37A1.34,1.34,0,0,1,20,38Z"/></g></svg>