<?xml version="1.0" encoding="utf-8"?>
<!-- Generator: Adobe Illustrator 19.2.0, SVG Export Plug-In . SVG Version: 6.00 Build 0)  -->
<svg version="1.1" id="Layer_1" xmlns="http://www.w3.org/2000/svg" xmlns:xlink="http://www.w3.org/1999/xlink" x="0px" y="0px"
	 viewBox="0 0 48 48" style="enable-background:new 0 0 48 48;" xml:space="preserve">
<style type="text/css">
	.st0{fill:none;stroke:#000000;stroke-width:2;stroke-miterlimit:10;}
</style>
<title>3. Communication</title>
<g id="User_Female">
	<path class="st0" d="M47,47H1l1.2-8c0.5-3.6,3.4-6.5,7-7.1l5.6-0.9c1.8-0.4,3.8,0,5.3,1l3.9,3l3.8-2.9c1.6-1.1,3.5-1.4,5.4-1.1
		l5.6,0.9c3.6,0.6,6.5,3.4,7,7.1L47,47z"/>
	<path class="st0" d="M33,11c0-5.5-3.6-10-9-10s-9,4.5-9,10c0,2.6,0.4,11-6,11v1c4.9,1.3,9.9,1.9,15,2c5.1-0.1,10.1-0.7,15-2v-1
		C32.8,22,33,13,33,11z"/>
</g>
</svg>
