<?xml version="1.0" encoding="utf-8"?>
<!-- Generator: Adobe Illustrator 19.2.0, SVG Export Plug-In . SVG Version: 6.00 Build 0)  -->
<svg version="1.1" id="Layer_1" xmlns="http://www.w3.org/2000/svg" xmlns:xlink="http://www.w3.org/1999/xlink" x="0px" y="0px"
	 viewBox="0 0 56 48" style="enable-background:new 0 0 56 48;" xml:space="preserve">
<style type="text/css">
	.st0{fill:none;stroke:#000000;stroke-width:2;stroke-miterlimit:10;}
</style>
<title>3. Communication</title>
<g id="Users">
	<path class="st0" d="M26.7,12.4c0.1-4-3.2-7.4-7.2-7.4c-0.1,0-0.2,0-0.3,0c-4.1,0-7.7,3.3-7.5,7.4c0,0.8,0.8,5,0.8,5
		c0.6,3.6,3,6.6,6.7,6.6s6-3,6.7-6.6C25.9,17.4,26.7,13.3,26.7,12.4z"/>
	<path class="st0" d="M37.7,43h-37l0.6-7.2c0.3-2.7,3.1-4.6,5.9-5.1l12-1.6l12.1,1.6c3.1,0.6,5.8,2.3,6,5.4L37.7,43z"/>
	<path class="st0" d="M46.2,17.4c0-3.3-2.7-6-6-6s-6,2.7-6,6c0,0.7,0.7,3.9,0.7,3.9c0.5,2.8,2.4,5.2,5.3,5.2s4.8-2.4,5.3-5.2
		C45.6,21.3,46.2,18,46.2,17.4z"/>
	<path class="st0" d="M40.2,31l9.9,1.2c2.4,0.4,4.6,1.8,4.8,4.4l0.3,6.4H43.7"/>
</g>
</svg>
