<?xml version="1.0" encoding="utf-8"?>
<!-- Generator: Adobe Illustrator 19.2.0, SVG Export Plug-In . SVG Version: 6.00 Build 0)  -->
<svg version="1.1" id="Layer_1" xmlns="http://www.w3.org/2000/svg" xmlns:xlink="http://www.w3.org/1999/xlink" x="0px" y="0px"
	 viewBox="0 0 48 48" style="enable-background:new 0 0 48 48;" xml:space="preserve">
<style type="text/css">
	.st0{fill:none;stroke:#000000;stroke-width:2;stroke-miterlimit:10;}
</style>
<title>3. Communication</title>
<g id="User_Alt">
	<circle class="st0" cx="24" cy="24" r="23"/>
	<path class="st0" d="M31,14c0.1-3.8-2.9-6.9-6.7-7c-0.1,0-0.2,0-0.3,0c-3.8-0.1-6.9,2.9-7,6.7c0,0.1,0,0.2,0,0.3
		c0,0.8,0.8,4.7,0.8,4.7c0.6,3.4,2.8,6.3,6.2,6.3s5.6-2.8,6.2-6.3C30.2,18.7,31,14.8,31,14z"/>
	<path class="st0" d="M7,39.5v-0.7c0-3.1,2.3-5.4,5.4-6.2L24,30.5l11.7,2.2c3,0.9,5.3,3,5.3,6.2v0.7"/>
</g>
</svg>
