<?xml version="1.0" encoding="utf-8"?>
<!-- Generator: Adobe Illustrator 19.2.0, SVG Export Plug-In . SVG Version: 6.00 Build 0)  -->
<svg version="1.1" id="Layer_1" xmlns="http://www.w3.org/2000/svg" xmlns:xlink="http://www.w3.org/1999/xlink" x="0px" y="0px"
	 viewBox="0 0 48 48" style="enable-background:new 0 0 48 48;" xml:space="preserve">
<style type="text/css">
	.st0{fill:none;stroke:#000000;stroke-width:2;stroke-miterlimit:10;}
</style>
<title>Untitled-25</title>
<g id="Wheelchair">
	<circle class="st0" cx="21.5" cy="5" r="4"/>
	<path class="st0" d="M43.7,41.1l-5.1-11.5C38,28,36.5,27,34.8,27h-9.3l-0.8-11c-0.1-1.5-1.3-2.8-2.8-3c-1.7-0.2-3.3,1-3.6,2.8
		c0,0.1,0,0.2,0,0.2l-0.5,10.7c-0.2,3.3,2.4,6.1,5.7,6.3c0.1,0,0.2,0,0.3,0h10.5l5.3,10.3c0.6,1,1.9,1.5,3,1
		c1.2-0.5,1.7-1.9,1.2-3.1C43.8,41.2,43.8,41.1,43.7,41.1z"/>
	<path class="st0" d="M18.3,17C10,17.4,3.7,24.4,4.1,32.7S11.5,47.4,19.8,47c7.6-0.4,13.7-6.4,14.2-14"/>
</g>
</svg>
