<?xml version="1.0" encoding="utf-8"?>
<!-- Generator: Adobe Illustrator 19.2.0, SVG Export Plug-In . SVG Version: 6.00 Build 0)  -->
<svg version="1.1" id="Layer_1" xmlns="http://www.w3.org/2000/svg" xmlns:xlink="http://www.w3.org/1999/xlink" x="0px" y="0px"
	 viewBox="0 0 48 48" style="enable-background:new 0 0 48 48;" xml:space="preserve">
<style type="text/css">
	.st0{fill:none;stroke:#000000;stroke-width:2;stroke-miterlimit:10;}
</style>
<title>Untitled-22</title>
<g id="Wine">
	<path class="st0" d="M27,10.1V1h-6v9.1c0,1.8-0.9,3.5-2.4,4.5l0,0C17,15.8,16,17.7,16,19.7v23.3c0,2.2,1.8,3.9,3.9,3.9h8.1
		c2.2,0,3.9-1.8,3.9-3.9V19.7c0-2-1-3.9-2.6-5.1l0,0C27.9,13.6,27,11.9,27,10.1z"/>
	<line class="st0" x1="21" y1="5" x2="27" y2="5"/>
	<polyline class="st0" points="32,38.5 26,38.5 26,24.5 32,24.5 	"/>
</g>
</svg>
