<?xml version="1.0" encoding="utf-8"?>
<!-- Generator: Adobe Illustrator 19.2.0, SVG Export Plug-In . SVG Version: 6.00 Build 0)  -->
<svg version="1.1" id="Layer_1" xmlns="http://www.w3.org/2000/svg" xmlns:xlink="http://www.w3.org/1999/xlink" x="0px" y="0px"
	 viewBox="0 0 48 48" style="enable-background:new 0 0 48 48;" xml:space="preserve">
<style type="text/css">
	.st0{fill:none;stroke:#000000;stroke-width:2;stroke-miterlimit:10;}
</style>
<title>3. Communication</title>
<g id="Woman">
	<path class="st0" d="M32.4,42.9L45.5,39C48,15,41.2,3,29,3l0,0l-2-2C7,1,0,15,2.5,39l12.8,3.8"/>
	<circle cx="17.5" cy="25.5" r="2.5"/>
	<circle cx="30.5" cy="25.5" r="2.5"/>
	<path class="st0" d="M29,36l-0.3,0.5c-1,1.6-2.8,2.5-4.7,2.5l0,0c-1.9,0-3.6-0.9-4.7-2.5L19,36"/>
	<path class="st0" d="M39,21.5v5c0,7-3.1,13.6-8.5,18.1h-0.1c-3.7,3.1-9.2,3.1-12.9,0l-3.7-3.1C10.8,39,9,35.2,9,31.2v-9.7
		c0,0,19-4.5,19-11.5C28,16,39,21.5,39,21.5z"/>
</g>
</svg>
