<svg id="Layer_1" data-name="Layer 1" xmlns="http://www.w3.org/2000/svg" viewBox="0 0 48 48"><defs><style>.cls-1{fill:none;stroke:#000;stroke-miterlimit:10;stroke-width:2px;}</style></defs><title>1. General</title><g id="Wranch"><path class="cls-1" d="M42.6,17.14L47,9.53l-2-2L39.7,12.87,35.44,8.62,40.76,3.3,38.46,1,31,5.62a6,6,0,0,0-2.83,5.29l0.11,3.42L2.42,40.16a4,4,0,0,0,0,5.67h0a4,4,0,0,0,5.68,0L34,20l3.12,0.14A6,6,0,0,0,42.6,17.14Z"/><path class="cls-1" d="M39.29,45.68L29.4,35.9l6.39-6.38,9.88,9.78a4.5,4.5,0,0,1,0,6.38h0A4.52,4.52,0,0,1,39.29,45.68Z"/><polygon class="cls-1" points="23.01 19.6 19.46 23.15 9.17 12.87 3.48 11.45 1 3.3 3.13 1.18 11.65 3.3 12.72 9.33 23.01 19.6"/><polygon class="cls-1" points="30.82 34.49 25.14 28.82 29.05 24.92 34.73 30.59 30.82 34.49"/></g></svg>